<?xml version="1.0" encoding="UTF-8"?>
<!DOCTYPE svg PUBLIC "-//W3C//DTD SVG 1.1//EN" 
"http://www.w3.org/Graphics/SVG/1.1/DTD/svg11.dtd">

<svg width="100%" height="100%" version="1.1"
xmlns="http://www.w3.org/2000/svg">
<line x1="10.0" y1="280.8114369335434" x2="10.0" y2="270.8114369335434" stroke="rgb(35%, 35%, 35%)" stroke-width="1.0" />
<line x1="10.0" y1="260.8114369335434" x2="10.0" y2="250.8114369335434" stroke="rgb(35%, 35%, 35%)" stroke-width="1.0" />
<line x1="10.0" y1="240.8114369335434" x2="10.0" y2="230.8114369335434" stroke="rgb(35%, 35%, 35%)" stroke-width="1.0" />
<line x1="10.0" y1="220.8114369335434" x2="10.0" y2="210.8114369335434" stroke="rgb(35%, 35%, 35%)" stroke-width="1.0" />
<line x1="10.0" y1="200.8114369335434" x2="10.0" y2="190.8114369335434" stroke="rgb(35%, 35%, 35%)" stroke-width="1.0" />
<line x1="10.0" y1="180.8114369335434" x2="10.0" y2="170.81143693354343" stroke="rgb(35%, 35%, 35%)" stroke-width="1.0" />
<line x1="10.0" y1="160.81143693354343" x2="10.0" y2="150.81143693354343" stroke="rgb(35%, 35%, 35%)" stroke-width="1.0" />
<line x1="10.0" y1="140.81143693354343" x2="10.0" y2="130.81143693354343" stroke="rgb(35%, 35%, 35%)" stroke-width="1.0" />
<line x1="10.0" y1="120.81143693354343" x2="10.0" y2="110.81143693354343" stroke="rgb(35%, 35%, 35%)" stroke-width="1.0" />
<line x1="10.0" y1="100.81143693354343" x2="10.0" y2="90.81143693354343" stroke="rgb(35%, 35%, 35%)" stroke-width="1.0" />
<line x1="10.0" y1="80.81143693354343" x2="10.0" y2="70.81143693354343" stroke="rgb(35%, 35%, 35%)" stroke-width="1.0" />
<line x1="10.0" y1="60.81143693354343" x2="10.0" y2="50.811436933543405" stroke="rgb(35%, 35%, 35%)" stroke-width="1.0" />
<line x1="10.0" y1="40.811436933543405" x2="10.0" y2="30.811436933543405" stroke="rgb(35%, 35%, 35%)" stroke-width="1.0" />
<line x1="12.142847542525644" y1="21.29389286519256" x2="15.357134364504525" y2="14.517544068350844" stroke="rgb(35%, 35%, 35%)" stroke-width="1.0" />
<line x1="22.49998190703017" y1="10.0" x2="30.00001809296984" y2="10.0" stroke="rgb(35%, 35%, 35%)" stroke-width="1.0" />
<line x1="37.14286563549548" y1="14.517544068350844" x2="40.357152457474356" y2="21.29389286519256" stroke="rgb(35%, 35%, 35%)" stroke-width="1.0" />
<line x1="42.5" y1="30.811436933543405" x2="42.5" y2="40.811436933543405" stroke="rgb(35%, 35%, 35%)" stroke-width="1.0" />
<line x1="42.5" y1="50.811436933543405" x2="42.5" y2="60.81143693354343" stroke="rgb(35%, 35%, 35%)" stroke-width="1.0" />
<line x1="42.5" y1="70.81143693354343" x2="42.5" y2="80.81143693354343" stroke="rgb(35%, 35%, 35%)" stroke-width="1.0" />
<line x1="42.5" y1="90.81143693354343" x2="42.5" y2="100.81143693354343" stroke="rgb(35%, 35%, 35%)" stroke-width="1.0" />
<line x1="42.5" y1="110.81143693354343" x2="42.5" y2="120.81143693354343" stroke="rgb(35%, 35%, 35%)" stroke-width="1.0" />
<line x1="42.5" y1="130.81143693354343" x2="42.5" y2="140.81143693354343" stroke="rgb(35%, 35%, 35%)" stroke-width="1.0" />
<line x1="42.5" y1="150.81143693354343" x2="42.5" y2="160.81143693354343" stroke="rgb(35%, 35%, 35%)" stroke-width="1.0" />
<line x1="42.5" y1="170.81143693354343" x2="42.5" y2="180.8114369335434" stroke="rgb(35%, 35%, 35%)" stroke-width="1.0" />
<line x1="42.5" y1="190.8114369335434" x2="42.5" y2="200.8114369335434" stroke="rgb(35%, 35%, 35%)" stroke-width="1.0" />
<line x1="42.5" y1="210.8114369335434" x2="42.5" y2="220.8114369335434" stroke="rgb(35%, 35%, 35%)" stroke-width="1.0" />
<line x1="42.5" y1="230.8114369335434" x2="42.5" y2="240.8114369335434" stroke="rgb(35%, 35%, 35%)" stroke-width="1.0" />
<line x1="42.5" y1="250.8114369335434" x2="42.5" y2="260.8114369335434" stroke="rgb(35%, 35%, 35%)" stroke-width="1.0" />
<line x1="42.5" y1="270.8114369335434" x2="42.5" y2="280.8114369335434" stroke="rgb(35%, 35%, 35%)" stroke-width="1.0" />
<line x1="15.0" y1="285.8114369335434" x2="37.5" y2="285.8114369335434" stroke="rgb(0%, 0%, 100%)" stroke-width="1.0" />
<circle cx="26.25" cy="285.8114369335434" r="2.75" stroke="none" stroke-width="1.0" fill="rgb(0%, 0%, 100%)"/>
<line x1="15.0" y1="265.8114369335434" x2="37.5" y2="265.8114369335434" stroke="rgb(0%, 0%, 100%)" stroke-width="1.0" />
<circle cx="26.25" cy="265.8114369335434" r="2.75" stroke="none" stroke-width="1.0" fill="rgb(0%, 0%, 100%)"/>
<line x1="15.0" y1="245.8114369335434" x2="37.5" y2="245.8114369335434" stroke="rgb(0%, 0%, 100%)" stroke-width="1.0" />
<circle cx="26.25" cy="245.8114369335434" r="2.75" stroke="none" stroke-width="1.0" fill="rgb(0%, 0%, 100%)"/>
<line x1="15.0" y1="225.8114369335434" x2="37.5" y2="225.8114369335434" stroke="rgb(0%, 0%, 100%)" stroke-width="1.0" />
<circle cx="26.25" cy="225.8114369335434" r="2.75" stroke="none" stroke-width="1.0" fill="rgb(0%, 0%, 100%)"/>
<line x1="15.0" y1="205.8114369335434" x2="37.5" y2="205.8114369335434" stroke="rgb(0%, 0%, 100%)" stroke-width="1.0" />
<circle cx="26.25" cy="205.8114369335434" r="2.75" stroke="none" stroke-width="1.0" fill="rgb(0%, 0%, 100%)"/>
<line x1="15.0" y1="185.8114369335434" x2="37.5" y2="185.8114369335434" stroke="rgb(0%, 0%, 100%)" stroke-width="1.0" />
<circle cx="26.25" cy="185.8114369335434" r="2.75" stroke="none" stroke-width="1.0" fill="rgb(0%, 0%, 100%)"/>
<line x1="15.0" y1="165.81143693354343" x2="37.5" y2="165.81143693354343" stroke="rgb(0%, 0%, 100%)" stroke-width="1.0" />
<circle cx="26.25" cy="165.81143693354343" r="2.75" stroke="none" stroke-width="1.0" fill="rgb(0%, 0%, 100%)"/>
<line x1="15.0" y1="145.81143693354343" x2="37.5" y2="145.81143693354343" stroke="rgb(0%, 0%, 100%)" stroke-width="1.0" />
<circle cx="26.25" cy="145.81143693354343" r="2.75" stroke="none" stroke-width="1.0" fill="rgb(0%, 0%, 100%)"/>
<line x1="15.0" y1="125.81143693354343" x2="37.5" y2="125.81143693354343" stroke="rgb(0%, 0%, 100%)" stroke-width="1.0" />
<circle cx="26.25" cy="125.81143693354343" r="2.75" stroke="none" stroke-width="1.0" fill="rgb(0%, 0%, 100%)"/>
<line x1="15.0" y1="105.81143693354343" x2="37.5" y2="105.81143693354343" stroke="rgb(0%, 0%, 100%)" stroke-width="1.0" />
<circle cx="26.25" cy="105.81143693354343" r="2.75" stroke="none" stroke-width="1.0" fill="rgb(0%, 0%, 100%)"/>
<line x1="15.0" y1="85.81143693354343" x2="37.5" y2="85.81143693354343" stroke="rgb(0%, 0%, 100%)" stroke-width="1.0" />
<circle cx="26.25" cy="85.81143693354343" r="2.75" stroke="none" stroke-width="1.0" fill="rgb(0%, 0%, 100%)"/>
<line x1="15.0" y1="65.81143693354343" x2="37.5" y2="65.81143693354343" stroke="rgb(0%, 0%, 100%)" stroke-width="1.0" />
<circle cx="26.25" cy="65.81143693354343" r="2.75" stroke="none" stroke-width="1.0" fill="rgb(0%, 0%, 100%)"/>
<line x1="15.0" y1="45.811436933543405" x2="37.5" y2="45.811436933543405" stroke="rgb(0%, 0%, 100%)" stroke-width="1.0" />
<circle cx="26.25" cy="45.811436933543405" r="2.75" stroke="none" stroke-width="1.0" fill="rgb(0%, 0%, 100%)"/>
<line x1="15.0" y1="25.811436933543405" x2="37.5" y2="25.811436933543405" stroke="rgb(0%, 0%, 100%)" stroke-width="1.0" />
<circle cx="26.25" cy="25.811436933543405" r="2.75" stroke="none" stroke-width="1.0" fill="rgb(0%, 0%, 100%)"/>
<circle cx="10.0" cy="285.8114369335434" r="5.0" stroke="none" stroke-width="1.0" fill="rgb(100%, 100%, 100%)"/>
<circle cx="10.0" cy="285.8114369335434" r="5.0" stroke="rgb(100%, 100%, 100%)" stroke-width="1.0" fill="none"/>
<text x="10.0" y="288.8114369335434" text-anchor="middle" font-family="Verdana" font-size="7.5" fill="rgb(100%, 100%, 100%)" >A</text>
<circle cx="10.0" cy="265.8114369335434" r="5.0" stroke="none" stroke-width="1.0" fill="rgb(100%, 100%, 100%)"/>
<circle cx="10.0" cy="265.8114369335434" r="5.0" stroke="rgb(100%, 100%, 100%)" stroke-width="1.0" fill="none"/>
<text x="10.0" y="268.8114369335434" text-anchor="middle" font-family="Verdana" font-size="7.5" fill="rgb(100%, 100%, 100%)" >A</text>
<circle cx="10.0" cy="245.8114369335434" r="5.0" stroke="none" stroke-width="1.0" fill="rgb(100%, 100%, 100%)"/>
<circle cx="10.0" cy="245.8114369335434" r="5.0" stroke="rgb(100%, 100%, 100%)" stroke-width="1.0" fill="none"/>
<text x="10.0" y="248.8114369335434" text-anchor="middle" font-family="Verdana" font-size="7.5" fill="rgb(100%, 100%, 100%)" >A</text>
<circle cx="10.0" cy="225.8114369335434" r="5.0" stroke="none" stroke-width="1.0" fill="rgb(100%, 100%, 100%)"/>
<circle cx="10.0" cy="225.8114369335434" r="5.0" stroke="rgb(100%, 100%, 100%)" stroke-width="1.0" fill="none"/>
<text x="10.0" y="228.8114369335434" text-anchor="middle" font-family="Verdana" font-size="7.5" fill="rgb(100%, 100%, 100%)" >A</text>
<circle cx="10.0" cy="205.8114369335434" r="5.0" stroke="none" stroke-width="1.0" fill="rgb(100%, 100%, 100%)"/>
<circle cx="10.0" cy="205.8114369335434" r="5.0" stroke="rgb(100%, 100%, 100%)" stroke-width="1.0" fill="none"/>
<text x="10.0" y="208.8114369335434" text-anchor="middle" font-family="Verdana" font-size="7.5" fill="rgb(100%, 100%, 100%)" >A</text>
<circle cx="10.0" cy="185.8114369335434" r="5.0" stroke="none" stroke-width="1.0" fill="rgb(100%, 100%, 100%)"/>
<circle cx="10.0" cy="185.8114369335434" r="5.0" stroke="rgb(100%, 100%, 100%)" stroke-width="1.0" fill="none"/>
<text x="10.0" y="188.8114369335434" text-anchor="middle" font-family="Verdana" font-size="7.5" fill="rgb(100%, 100%, 100%)" >A</text>
<circle cx="10.0" cy="165.81143693354343" r="5.0" stroke="none" stroke-width="1.0" fill="rgb(100%, 100%, 100%)"/>
<circle cx="10.0" cy="165.81143693354343" r="5.0" stroke="rgb(100%, 100%, 100%)" stroke-width="1.0" fill="none"/>
<text x="10.0" y="168.81143693354343" text-anchor="middle" font-family="Verdana" font-size="7.5" fill="rgb(100%, 100%, 100%)" >A</text>
<circle cx="10.0" cy="145.81143693354343" r="5.0" stroke="none" stroke-width="1.0" fill="rgb(100%, 100%, 100%)"/>
<circle cx="10.0" cy="145.81143693354343" r="5.0" stroke="rgb(100%, 100%, 100%)" stroke-width="1.0" fill="none"/>
<text x="10.0" y="148.81143693354343" text-anchor="middle" font-family="Verdana" font-size="7.5" fill="rgb(100%, 100%, 100%)" >A</text>
<circle cx="10.0" cy="125.81143693354343" r="5.0" stroke="none" stroke-width="1.0" fill="rgb(100%, 100%, 100%)"/>
<circle cx="10.0" cy="125.81143693354343" r="5.0" stroke="rgb(100%, 100%, 100%)" stroke-width="1.0" fill="none"/>
<text x="10.0" y="128.81143693354343" text-anchor="middle" font-family="Verdana" font-size="7.5" fill="rgb(100%, 100%, 100%)" >A</text>
<circle cx="10.0" cy="105.81143693354343" r="5.0" stroke="none" stroke-width="1.0" fill="rgb(100%, 100%, 100%)"/>
<circle cx="10.0" cy="105.81143693354343" r="5.0" stroke="rgb(100%, 100%, 100%)" stroke-width="1.0" fill="none"/>
<text x="10.0" y="108.81143693354343" text-anchor="middle" font-family="Verdana" font-size="7.5" fill="rgb(100%, 100%, 100%)" >A</text>
<circle cx="10.0" cy="85.81143693354343" r="5.0" stroke="none" stroke-width="1.0" fill="rgb(100%, 100%, 100%)"/>
<circle cx="10.0" cy="85.81143693354343" r="5.0" stroke="rgb(100%, 100%, 100%)" stroke-width="1.0" fill="none"/>
<text x="10.0" y="88.81143693354343" text-anchor="middle" font-family="Verdana" font-size="7.5" fill="rgb(100%, 100%, 100%)" >A</text>
<circle cx="10.0" cy="65.81143693354343" r="5.0" stroke="none" stroke-width="1.0" fill="rgb(100%, 100%, 100%)"/>
<circle cx="10.0" cy="65.81143693354343" r="5.0" stroke="rgb(100%, 100%, 100%)" stroke-width="1.0" fill="none"/>
<text x="10.0" y="68.81143693354343" text-anchor="middle" font-family="Verdana" font-size="7.5" fill="rgb(100%, 100%, 100%)" >A</text>
<circle cx="10.0" cy="45.811436933543405" r="5.0" stroke="none" stroke-width="1.0" fill="rgb(100%, 100%, 100%)"/>
<circle cx="10.0" cy="45.811436933543405" r="5.0" stroke="rgb(100%, 100%, 100%)" stroke-width="1.0" fill="none"/>
<text x="10.0" y="48.811436933543405" text-anchor="middle" font-family="Verdana" font-size="7.5" fill="rgb(100%, 100%, 100%)" >A</text>
<circle cx="10.0" cy="25.811436933543405" r="5.0" stroke="none" stroke-width="1.0" fill="rgb(100%, 100%, 100%)"/>
<circle cx="10.0" cy="25.811436933543405" r="5.0" stroke="rgb(100%, 100%, 100%)" stroke-width="1.0" fill="none"/>
<text x="10.0" y="28.811436933543405" text-anchor="middle" font-family="Verdana" font-size="7.5" fill="rgb(100%, 100%, 100%)" >A</text>
<circle cx="17.49998190703017" cy="10.0" r="5.0" stroke="none" stroke-width="1.0" fill="rgb(100%, 100%, 100%)"/>
<circle cx="17.49998190703017" cy="10.0" r="5.0" stroke="rgb(100%, 100%, 100%)" stroke-width="1.0" fill="none"/>
<text x="17.49998190703017" y="13.0" text-anchor="middle" font-family="Verdana" font-size="7.5" fill="rgb(100%, 100%, 100%)" >A</text>
<circle cx="35.00001809296984" cy="10.0" r="5.0" stroke="none" stroke-width="1.0" fill="rgb(100%, 100%, 100%)"/>
<circle cx="35.00001809296984" cy="10.0" r="5.0" stroke="rgb(100%, 100%, 100%)" stroke-width="1.0" fill="none"/>
<text x="35.00001809296984" y="13.0" text-anchor="middle" font-family="Verdana" font-size="7.5" fill="rgb(100%, 100%, 100%)" >A</text>
<circle cx="42.5" cy="25.811436933543405" r="5.0" stroke="none" stroke-width="1.0" fill="rgb(100%, 100%, 100%)"/>
<circle cx="42.5" cy="25.811436933543405" r="5.0" stroke="rgb(100%, 100%, 100%)" stroke-width="1.0" fill="none"/>
<text x="42.5" y="28.811436933543405" text-anchor="middle" font-family="Verdana" font-size="7.5" fill="rgb(100%, 100%, 100%)" >A</text>
<circle cx="42.5" cy="45.811436933543405" r="5.0" stroke="none" stroke-width="1.0" fill="rgb(100%, 100%, 100%)"/>
<circle cx="42.5" cy="45.811436933543405" r="5.0" stroke="rgb(100%, 100%, 100%)" stroke-width="1.0" fill="none"/>
<text x="42.5" y="48.811436933543405" text-anchor="middle" font-family="Verdana" font-size="7.5" fill="rgb(100%, 100%, 100%)" >A</text>
<circle cx="42.5" cy="65.81143693354343" r="5.0" stroke="none" stroke-width="1.0" fill="rgb(100%, 100%, 100%)"/>
<circle cx="42.5" cy="65.81143693354343" r="5.0" stroke="rgb(100%, 100%, 100%)" stroke-width="1.0" fill="none"/>
<text x="42.5" y="68.81143693354343" text-anchor="middle" font-family="Verdana" font-size="7.5" fill="rgb(100%, 100%, 100%)" >A</text>
<circle cx="42.5" cy="85.81143693354343" r="5.0" stroke="none" stroke-width="1.0" fill="rgb(100%, 100%, 100%)"/>
<circle cx="42.5" cy="85.81143693354343" r="5.0" stroke="rgb(100%, 100%, 100%)" stroke-width="1.0" fill="none"/>
<text x="42.5" y="88.81143693354343" text-anchor="middle" font-family="Verdana" font-size="7.5" fill="rgb(100%, 100%, 100%)" >A</text>
<circle cx="42.5" cy="105.81143693354343" r="5.0" stroke="none" stroke-width="1.0" fill="rgb(100%, 100%, 100%)"/>
<circle cx="42.5" cy="105.81143693354343" r="5.0" stroke="rgb(100%, 100%, 100%)" stroke-width="1.0" fill="none"/>
<text x="42.5" y="108.81143693354343" text-anchor="middle" font-family="Verdana" font-size="7.5" fill="rgb(100%, 100%, 100%)" >A</text>
<circle cx="42.5" cy="125.81143693354343" r="5.0" stroke="none" stroke-width="1.0" fill="rgb(100%, 100%, 100%)"/>
<circle cx="42.5" cy="125.81143693354343" r="5.0" stroke="rgb(100%, 100%, 100%)" stroke-width="1.0" fill="none"/>
<text x="42.5" y="128.81143693354343" text-anchor="middle" font-family="Verdana" font-size="7.5" fill="rgb(100%, 100%, 100%)" >A</text>
<circle cx="42.5" cy="145.81143693354343" r="5.0" stroke="none" stroke-width="1.0" fill="rgb(100%, 100%, 100%)"/>
<circle cx="42.5" cy="145.81143693354343" r="5.0" stroke="rgb(100%, 100%, 100%)" stroke-width="1.0" fill="none"/>
<text x="42.5" y="148.81143693354343" text-anchor="middle" font-family="Verdana" font-size="7.5" fill="rgb(100%, 100%, 100%)" >A</text>
<circle cx="42.5" cy="165.81143693354343" r="5.0" stroke="none" stroke-width="1.0" fill="rgb(100%, 100%, 100%)"/>
<circle cx="42.5" cy="165.81143693354343" r="5.0" stroke="rgb(100%, 100%, 100%)" stroke-width="1.0" fill="none"/>
<text x="42.5" y="168.81143693354343" text-anchor="middle" font-family="Verdana" font-size="7.5" fill="rgb(100%, 100%, 100%)" >A</text>
<circle cx="42.5" cy="185.8114369335434" r="5.0" stroke="none" stroke-width="1.0" fill="rgb(100%, 100%, 100%)"/>
<circle cx="42.5" cy="185.8114369335434" r="5.0" stroke="rgb(100%, 100%, 100%)" stroke-width="1.0" fill="none"/>
<text x="42.5" y="188.8114369335434" text-anchor="middle" font-family="Verdana" font-size="7.5" fill="rgb(100%, 100%, 100%)" >A</text>
<circle cx="42.5" cy="205.8114369335434" r="5.0" stroke="none" stroke-width="1.0" fill="rgb(100%, 100%, 100%)"/>
<circle cx="42.5" cy="205.8114369335434" r="5.0" stroke="rgb(100%, 100%, 100%)" stroke-width="1.0" fill="none"/>
<text x="42.5" y="208.8114369335434" text-anchor="middle" font-family="Verdana" font-size="7.5" fill="rgb(100%, 100%, 100%)" >A</text>
<circle cx="42.5" cy="225.8114369335434" r="5.0" stroke="none" stroke-width="1.0" fill="rgb(100%, 100%, 100%)"/>
<circle cx="42.5" cy="225.8114369335434" r="5.0" stroke="rgb(100%, 100%, 100%)" stroke-width="1.0" fill="none"/>
<text x="42.5" y="228.8114369335434" text-anchor="middle" font-family="Verdana" font-size="7.5" fill="rgb(100%, 100%, 100%)" >A</text>
<circle cx="42.5" cy="245.8114369335434" r="5.0" stroke="none" stroke-width="1.0" fill="rgb(100%, 100%, 100%)"/>
<circle cx="42.5" cy="245.8114369335434" r="5.0" stroke="rgb(100%, 100%, 100%)" stroke-width="1.0" fill="none"/>
<text x="42.5" y="248.8114369335434" text-anchor="middle" font-family="Verdana" font-size="7.5" fill="rgb(100%, 100%, 100%)" >A</text>
<circle cx="42.5" cy="265.8114369335434" r="5.0" stroke="none" stroke-width="1.0" fill="rgb(100%, 100%, 100%)"/>
<circle cx="42.5" cy="265.8114369335434" r="5.0" stroke="rgb(100%, 100%, 100%)" stroke-width="1.0" fill="none"/>
<text x="42.5" y="268.8114369335434" text-anchor="middle" font-family="Verdana" font-size="7.5" fill="rgb(100%, 100%, 100%)" >A</text>
<circle cx="42.5" cy="285.8114369335434" r="5.0" stroke="none" stroke-width="1.0" fill="rgb(100%, 100%, 100%)"/>
<circle cx="42.5" cy="285.8114369335434" r="5.0" stroke="rgb(100%, 100%, 100%)" stroke-width="1.0" fill="none"/>
<text x="42.5" y="288.8114369335434" text-anchor="middle" font-family="Verdana" font-size="7.5" fill="rgb(100%, 100%, 100%)" >A</text>
<line x1="10.0" y1="293.3114369335434" x2="10.0" y2="298.3114369335434" stroke="rgb(100%, 100%, 100%)" stroke-width="1.0" />
<text x="9.999999999999996" y="308.8114369335434" text-anchor="middle" font-family="Verdana" font-size="7.5" fill="rgb(100%, 100%, 100%)" >1</text>
<line x1="42.5" y1="293.3114369335434" x2="42.5" y2="298.3114369335434" stroke="rgb(100%, 100%, 100%)" stroke-width="1.0" />
<text x="42.5" y="308.8114369335434" text-anchor="middle" font-family="Verdana" font-size="7.5" fill="rgb(100%, 100%, 100%)" >30</text>
</svg>
