<?xml version="1.0" encoding="UTF-8"?>
<!DOCTYPE svg PUBLIC "-//W3C//DTD SVG 1.1//EN" 
"http://www.w3.org/Graphics/SVG/1.1/DTD/svg11.dtd">

<svg width="100%" height="100%" version="1.1"
xmlns="http://www.w3.org/2000/svg">
<line x1="10.0" y1="220.81143693354335" x2="10.0" y2="210.81143693354335" stroke="rgb(35%, 35%, 35%)" stroke-width="1.0" />
<line x1="12.142847542525654" y1="201.2938928651925" x2="15.357134364504514" y2="194.51754406835084" stroke="rgb(35%, 35%, 35%)" stroke-width="1.0" />
<line x1="22.49998190703017" y1="190.0" x2="30.00001809296984" y2="190.0" stroke="rgb(35%, 35%, 35%)" stroke-width="1.0" />
<line x1="37.14286563549549" y1="194.51754406835084" x2="40.35715245747435" y2="201.2938928651925" stroke="rgb(35%, 35%, 35%)" stroke-width="1.0" />
<line x1="42.5" y1="210.81143693354335" x2="42.5" y2="220.81143693354335" stroke="rgb(35%, 35%, 35%)" stroke-width="1.0" />
<line x1="47.5" y1="225.81143693354335" x2="55.0" y2="225.81143693354335" stroke="rgb(35%, 35%, 35%)" stroke-width="1.0" />
<line x1="60.0" y1="220.81143693354335" x2="60.0" y2="210.81143693354335" stroke="rgb(35%, 35%, 35%)" stroke-width="1.0" />
<line x1="60.0" y1="200.81143693354335" x2="60.0" y2="190.81143693354335" stroke="rgb(35%, 35%, 35%)" stroke-width="1.0" />
<line x1="60.0" y1="180.81143693354335" x2="60.0" y2="170.81143693354335" stroke="rgb(35%, 35%, 35%)" stroke-width="1.0" />
<line x1="60.0" y1="160.81143693354335" x2="60.0" y2="150.81143693354335" stroke="rgb(35%, 35%, 35%)" stroke-width="1.0" />
<line x1="60.0" y1="140.81143693354335" x2="60.0" y2="130.81143693354335" stroke="rgb(35%, 35%, 35%)" stroke-width="1.0" />
<line x1="60.0" y1="120.81143693354335" x2="60.0" y2="110.81143693354335" stroke="rgb(35%, 35%, 35%)" stroke-width="1.0" />
<line x1="60.0" y1="100.81143693354335" x2="60.0" y2="90.81143693354335" stroke="rgb(35%, 35%, 35%)" stroke-width="1.0" />
<line x1="60.0" y1="80.81143693354335" x2="60.0" y2="70.81143693354335" stroke="rgb(35%, 35%, 35%)" stroke-width="1.0" />
<line x1="60.0" y1="60.81143693354335" x2="60.0" y2="50.81143693354335" stroke="rgb(35%, 35%, 35%)" stroke-width="1.0" />
<line x1="60.0" y1="40.81143693354335" x2="60.0" y2="30.811436933543348" stroke="rgb(35%, 35%, 35%)" stroke-width="1.0" />
<line x1="62.142847542525644" y1="21.293892865192504" x2="65.35713436450452" y2="14.517544068350844" stroke="rgb(35%, 35%, 35%)" stroke-width="1.0" />
<line x1="72.49998190703016" y1="10.0" x2="80.00001809296984" y2="10.0" stroke="rgb(35%, 35%, 35%)" stroke-width="1.0" />
<line x1="87.14286563549548" y1="14.517544068350844" x2="90.35715245747436" y2="21.293892865192504" stroke="rgb(35%, 35%, 35%)" stroke-width="1.0" />
<line x1="92.5" y1="30.811436933543348" x2="92.5" y2="40.81143693354335" stroke="rgb(35%, 35%, 35%)" stroke-width="1.0" />
<line x1="92.5" y1="50.81143693354335" x2="92.5" y2="60.81143693354335" stroke="rgb(35%, 35%, 35%)" stroke-width="1.0" />
<line x1="92.5" y1="70.81143693354335" x2="92.5" y2="80.81143693354335" stroke="rgb(35%, 35%, 35%)" stroke-width="1.0" />
<line x1="92.5" y1="90.81143693354335" x2="92.5" y2="100.81143693354335" stroke="rgb(35%, 35%, 35%)" stroke-width="1.0" />
<line x1="92.5" y1="110.81143693354335" x2="92.5" y2="120.81143693354335" stroke="rgb(35%, 35%, 35%)" stroke-width="1.0" />
<line x1="92.5" y1="130.81143693354335" x2="92.5" y2="140.81143693354335" stroke="rgb(35%, 35%, 35%)" stroke-width="1.0" />
<line x1="92.5" y1="150.81143693354335" x2="92.5" y2="160.81143693354335" stroke="rgb(35%, 35%, 35%)" stroke-width="1.0" />
<line x1="92.5" y1="170.81143693354335" x2="92.5" y2="180.81143693354335" stroke="rgb(35%, 35%, 35%)" stroke-width="1.0" />
<line x1="92.5" y1="190.81143693354335" x2="92.5" y2="200.81143693354335" stroke="rgb(35%, 35%, 35%)" stroke-width="1.0" />
<line x1="92.5" y1="210.81143693354335" x2="92.5" y2="220.81143693354335" stroke="rgb(35%, 35%, 35%)" stroke-width="1.0" />
<line x1="15.0" y1="225.81143693354335" x2="37.5" y2="225.81143693354335" stroke="rgb(0%, 0%, 100%)" stroke-width="1.0" />
<circle cx="26.25" cy="225.81143693354335" r="2.75" stroke="none" stroke-width="1.0" fill="rgb(0%, 0%, 100%)"/>
<line x1="15.0" y1="205.81143693354335" x2="37.5" y2="205.81143693354335" stroke="rgb(0%, 0%, 100%)" stroke-width="1.0" />
<circle cx="26.25" cy="205.81143693354335" r="2.75" stroke="none" stroke-width="1.0" fill="rgb(0%, 0%, 100%)"/>
<line x1="65.0" y1="225.81143693354335" x2="87.5" y2="225.81143693354335" stroke="rgb(0%, 0%, 100%)" stroke-width="1.0" />
<circle cx="76.25" cy="225.81143693354335" r="2.75" stroke="none" stroke-width="1.0" fill="rgb(0%, 0%, 100%)"/>
<line x1="65.0" y1="205.81143693354335" x2="87.5" y2="205.81143693354335" stroke="rgb(0%, 0%, 100%)" stroke-width="1.0" />
<circle cx="76.25" cy="205.81143693354335" r="2.75" stroke="none" stroke-width="1.0" fill="rgb(0%, 0%, 100%)"/>
<line x1="65.0" y1="185.81143693354335" x2="87.5" y2="185.81143693354335" stroke="rgb(0%, 0%, 100%)" stroke-width="1.0" />
<circle cx="76.25" cy="185.81143693354335" r="2.75" stroke="none" stroke-width="1.0" fill="rgb(0%, 0%, 100%)"/>
<line x1="65.0" y1="165.81143693354335" x2="87.5" y2="165.81143693354335" stroke="rgb(0%, 0%, 100%)" stroke-width="1.0" />
<circle cx="76.25" cy="165.81143693354335" r="2.75" stroke="none" stroke-width="1.0" fill="rgb(0%, 0%, 100%)"/>
<line x1="65.0" y1="145.81143693354335" x2="87.5" y2="145.81143693354335" stroke="rgb(0%, 0%, 100%)" stroke-width="1.0" />
<circle cx="76.25" cy="145.81143693354335" r="2.75" stroke="none" stroke-width="1.0" fill="rgb(0%, 0%, 100%)"/>
<line x1="65.0" y1="125.81143693354336" x2="87.5" y2="125.81143693354336" stroke="rgb(0%, 0%, 100%)" stroke-width="1.0" />
<circle cx="76.25" cy="125.81143693354336" r="2.75" stroke="none" stroke-width="1.0" fill="rgb(0%, 0%, 100%)"/>
<line x1="65.0" y1="105.81143693354335" x2="87.5" y2="105.81143693354335" stroke="rgb(0%, 0%, 100%)" stroke-width="1.0" />
<circle cx="76.25" cy="105.81143693354335" r="2.75" stroke="none" stroke-width="1.0" fill="rgb(0%, 0%, 100%)"/>
<line x1="65.0" y1="85.81143693354335" x2="87.5" y2="85.81143693354335" stroke="rgb(0%, 0%, 100%)" stroke-width="1.0" />
<circle cx="76.25" cy="85.81143693354335" r="2.75" stroke="none" stroke-width="1.0" fill="rgb(0%, 0%, 100%)"/>
<line x1="65.0" y1="65.81143693354335" x2="87.5" y2="65.81143693354335" stroke="rgb(0%, 0%, 100%)" stroke-width="1.0" />
<circle cx="76.25" cy="65.81143693354335" r="2.75" stroke="none" stroke-width="1.0" fill="rgb(0%, 0%, 100%)"/>
<line x1="65.0" y1="45.81143693354335" x2="87.5" y2="45.81143693354335" stroke="rgb(0%, 0%, 100%)" stroke-width="1.0" />
<circle cx="76.25" cy="45.81143693354335" r="2.75" stroke="none" stroke-width="1.0" fill="rgb(0%, 0%, 100%)"/>
<line x1="65.0" y1="25.811436933543348" x2="87.5" y2="25.811436933543348" stroke="rgb(0%, 0%, 100%)" stroke-width="1.0" />
<circle cx="76.25" cy="25.811436933543348" r="2.75" stroke="none" stroke-width="1.0" fill="rgb(0%, 0%, 100%)"/>
<circle cx="10.0" cy="225.81143693354335" r="5.0" stroke="none" stroke-width="1.0" fill="rgb(100%, 100%, 100%)"/>
<circle cx="10.0" cy="225.81143693354335" r="5.0" stroke="rgb(100%, 100%, 100%)" stroke-width="1.0" fill="none"/>
<text x="10.0" y="228.81143693354335" text-anchor="middle" font-family="Verdana" font-size="7.5" fill="rgb(100%, 100%, 100%)" >A</text>
<circle cx="10.0" cy="205.81143693354335" r="5.0" stroke="none" stroke-width="1.0" fill="rgb(100%, 100%, 100%)"/>
<circle cx="10.0" cy="205.81143693354335" r="5.0" stroke="rgb(100%, 100%, 100%)" stroke-width="1.0" fill="none"/>
<text x="10.0" y="208.81143693354335" text-anchor="middle" font-family="Verdana" font-size="7.5" fill="rgb(100%, 100%, 100%)" >A</text>
<circle cx="17.49998190703017" cy="190.0" r="5.0" stroke="none" stroke-width="1.0" fill="rgb(100%, 100%, 100%)"/>
<circle cx="17.49998190703017" cy="190.0" r="5.0" stroke="rgb(100%, 100%, 100%)" stroke-width="1.0" fill="none"/>
<text x="17.49998190703017" y="193.0" text-anchor="middle" font-family="Verdana" font-size="7.5" fill="rgb(100%, 100%, 100%)" >A</text>
<circle cx="35.00001809296984" cy="190.0" r="5.0" stroke="none" stroke-width="1.0" fill="rgb(100%, 100%, 100%)"/>
<circle cx="35.00001809296984" cy="190.0" r="5.0" stroke="rgb(100%, 100%, 100%)" stroke-width="1.0" fill="none"/>
<text x="35.00001809296984" y="193.0" text-anchor="middle" font-family="Verdana" font-size="7.5" fill="rgb(100%, 100%, 100%)" >A</text>
<circle cx="42.5" cy="205.81143693354335" r="5.0" stroke="none" stroke-width="1.0" fill="rgb(100%, 100%, 100%)"/>
<circle cx="42.5" cy="205.81143693354335" r="5.0" stroke="rgb(100%, 100%, 100%)" stroke-width="1.0" fill="none"/>
<text x="42.5" y="208.81143693354335" text-anchor="middle" font-family="Verdana" font-size="7.5" fill="rgb(100%, 100%, 100%)" >A</text>
<circle cx="42.5" cy="225.81143693354335" r="5.0" stroke="none" stroke-width="1.0" fill="rgb(100%, 100%, 100%)"/>
<circle cx="42.5" cy="225.81143693354335" r="5.0" stroke="rgb(100%, 100%, 100%)" stroke-width="1.0" fill="none"/>
<text x="42.5" y="228.81143693354335" text-anchor="middle" font-family="Verdana" font-size="7.5" fill="rgb(100%, 100%, 100%)" >A</text>
<circle cx="60.0" cy="225.81143693354335" r="5.0" stroke="none" stroke-width="1.0" fill="rgb(100%, 100%, 100%)"/>
<circle cx="60.0" cy="225.81143693354335" r="5.0" stroke="rgb(100%, 100%, 100%)" stroke-width="1.0" fill="none"/>
<text x="60.0" y="228.81143693354335" text-anchor="middle" font-family="Verdana" font-size="7.5" fill="rgb(100%, 100%, 100%)" >A</text>
<circle cx="60.0" cy="205.81143693354335" r="5.0" stroke="none" stroke-width="1.0" fill="rgb(100%, 100%, 100%)"/>
<circle cx="60.0" cy="205.81143693354335" r="5.0" stroke="rgb(100%, 100%, 100%)" stroke-width="1.0" fill="none"/>
<text x="60.0" y="208.81143693354335" text-anchor="middle" font-family="Verdana" font-size="7.5" fill="rgb(100%, 100%, 100%)" >A</text>
<circle cx="60.0" cy="185.81143693354335" r="5.0" stroke="none" stroke-width="1.0" fill="rgb(100%, 100%, 100%)"/>
<circle cx="60.0" cy="185.81143693354335" r="5.0" stroke="rgb(100%, 100%, 100%)" stroke-width="1.0" fill="none"/>
<text x="60.0" y="188.81143693354335" text-anchor="middle" font-family="Verdana" font-size="7.5" fill="rgb(100%, 100%, 100%)" >A</text>
<circle cx="60.0" cy="165.81143693354335" r="5.0" stroke="none" stroke-width="1.0" fill="rgb(100%, 100%, 100%)"/>
<circle cx="60.0" cy="165.81143693354335" r="5.0" stroke="rgb(100%, 100%, 100%)" stroke-width="1.0" fill="none"/>
<text x="60.0" y="168.81143693354335" text-anchor="middle" font-family="Verdana" font-size="7.5" fill="rgb(100%, 100%, 100%)" >A</text>
<circle cx="60.0" cy="145.81143693354335" r="5.0" stroke="none" stroke-width="1.0" fill="rgb(100%, 100%, 100%)"/>
<circle cx="60.0" cy="145.81143693354335" r="5.0" stroke="rgb(100%, 100%, 100%)" stroke-width="1.0" fill="none"/>
<text x="60.0" y="148.81143693354335" text-anchor="middle" font-family="Verdana" font-size="7.5" fill="rgb(100%, 100%, 100%)" >A</text>
<circle cx="60.0" cy="125.81143693354336" r="5.0" stroke="none" stroke-width="1.0" fill="rgb(100%, 100%, 100%)"/>
<circle cx="60.0" cy="125.81143693354336" r="5.0" stroke="rgb(100%, 100%, 100%)" stroke-width="1.0" fill="none"/>
<text x="60.0" y="128.81143693354335" text-anchor="middle" font-family="Verdana" font-size="7.5" fill="rgb(100%, 100%, 100%)" >A</text>
<circle cx="60.0" cy="105.81143693354335" r="5.0" stroke="none" stroke-width="1.0" fill="rgb(100%, 100%, 100%)"/>
<circle cx="60.0" cy="105.81143693354335" r="5.0" stroke="rgb(100%, 100%, 100%)" stroke-width="1.0" fill="none"/>
<text x="60.0" y="108.81143693354335" text-anchor="middle" font-family="Verdana" font-size="7.5" fill="rgb(100%, 100%, 100%)" >A</text>
<circle cx="60.0" cy="85.81143693354335" r="5.0" stroke="none" stroke-width="1.0" fill="rgb(100%, 100%, 100%)"/>
<circle cx="60.0" cy="85.81143693354335" r="5.0" stroke="rgb(100%, 100%, 100%)" stroke-width="1.0" fill="none"/>
<text x="60.0" y="88.81143693354335" text-anchor="middle" font-family="Verdana" font-size="7.5" fill="rgb(100%, 100%, 100%)" >A</text>
<circle cx="60.0" cy="65.81143693354335" r="5.0" stroke="none" stroke-width="1.0" fill="rgb(100%, 100%, 100%)"/>
<circle cx="60.0" cy="65.81143693354335" r="5.0" stroke="rgb(100%, 100%, 100%)" stroke-width="1.0" fill="none"/>
<text x="60.0" y="68.81143693354335" text-anchor="middle" font-family="Verdana" font-size="7.5" fill="rgb(100%, 100%, 100%)" >A</text>
<circle cx="60.0" cy="45.81143693354335" r="5.0" stroke="none" stroke-width="1.0" fill="rgb(100%, 100%, 100%)"/>
<circle cx="60.0" cy="45.81143693354335" r="5.0" stroke="rgb(100%, 100%, 100%)" stroke-width="1.0" fill="none"/>
<text x="60.0" y="48.81143693354335" text-anchor="middle" font-family="Verdana" font-size="7.5" fill="rgb(100%, 100%, 100%)" >A</text>
<circle cx="60.0" cy="25.811436933543348" r="5.0" stroke="none" stroke-width="1.0" fill="rgb(100%, 100%, 100%)"/>
<circle cx="60.0" cy="25.811436933543348" r="5.0" stroke="rgb(100%, 100%, 100%)" stroke-width="1.0" fill="none"/>
<text x="60.0" y="28.811436933543348" text-anchor="middle" font-family="Verdana" font-size="7.5" fill="rgb(100%, 100%, 100%)" >A</text>
<circle cx="67.49998190703016" cy="10.0" r="5.0" stroke="none" stroke-width="1.0" fill="rgb(100%, 100%, 100%)"/>
<circle cx="67.49998190703016" cy="10.0" r="5.0" stroke="rgb(100%, 100%, 100%)" stroke-width="1.0" fill="none"/>
<text x="67.49998190703016" y="13.0" text-anchor="middle" font-family="Verdana" font-size="7.5" fill="rgb(100%, 100%, 100%)" >A</text>
<circle cx="85.00001809296984" cy="10.0" r="5.0" stroke="none" stroke-width="1.0" fill="rgb(100%, 100%, 100%)"/>
<circle cx="85.00001809296984" cy="10.0" r="5.0" stroke="rgb(100%, 100%, 100%)" stroke-width="1.0" fill="none"/>
<text x="85.00001809296984" y="13.0" text-anchor="middle" font-family="Verdana" font-size="7.5" fill="rgb(100%, 100%, 100%)" >A</text>
<circle cx="92.5" cy="25.811436933543348" r="5.0" stroke="none" stroke-width="1.0" fill="rgb(100%, 100%, 100%)"/>
<circle cx="92.5" cy="25.811436933543348" r="5.0" stroke="rgb(100%, 100%, 100%)" stroke-width="1.0" fill="none"/>
<text x="92.5" y="28.811436933543348" text-anchor="middle" font-family="Verdana" font-size="7.5" fill="rgb(100%, 100%, 100%)" >A</text>
<circle cx="92.5" cy="45.81143693354335" r="5.0" stroke="none" stroke-width="1.0" fill="rgb(100%, 100%, 100%)"/>
<circle cx="92.5" cy="45.81143693354335" r="5.0" stroke="rgb(100%, 100%, 100%)" stroke-width="1.0" fill="none"/>
<text x="92.5" y="48.81143693354335" text-anchor="middle" font-family="Verdana" font-size="7.5" fill="rgb(100%, 100%, 100%)" >A</text>
<circle cx="92.5" cy="65.81143693354335" r="5.0" stroke="none" stroke-width="1.0" fill="rgb(100%, 100%, 100%)"/>
<circle cx="92.5" cy="65.81143693354335" r="5.0" stroke="rgb(100%, 100%, 100%)" stroke-width="1.0" fill="none"/>
<text x="92.5" y="68.81143693354335" text-anchor="middle" font-family="Verdana" font-size="7.5" fill="rgb(100%, 100%, 100%)" >A</text>
<circle cx="92.5" cy="85.81143693354335" r="5.0" stroke="none" stroke-width="1.0" fill="rgb(100%, 100%, 100%)"/>
<circle cx="92.5" cy="85.81143693354335" r="5.0" stroke="rgb(100%, 100%, 100%)" stroke-width="1.0" fill="none"/>
<text x="92.5" y="88.81143693354335" text-anchor="middle" font-family="Verdana" font-size="7.5" fill="rgb(100%, 100%, 100%)" >A</text>
<circle cx="92.5" cy="105.81143693354335" r="5.0" stroke="none" stroke-width="1.0" fill="rgb(100%, 100%, 100%)"/>
<circle cx="92.5" cy="105.81143693354335" r="5.0" stroke="rgb(100%, 100%, 100%)" stroke-width="1.0" fill="none"/>
<text x="92.5" y="108.81143693354335" text-anchor="middle" font-family="Verdana" font-size="7.5" fill="rgb(100%, 100%, 100%)" >A</text>
<circle cx="92.5" cy="125.81143693354336" r="5.0" stroke="none" stroke-width="1.0" fill="rgb(100%, 100%, 100%)"/>
<circle cx="92.5" cy="125.81143693354336" r="5.0" stroke="rgb(100%, 100%, 100%)" stroke-width="1.0" fill="none"/>
<text x="92.5" y="128.81143693354335" text-anchor="middle" font-family="Verdana" font-size="7.5" fill="rgb(100%, 100%, 100%)" >A</text>
<circle cx="92.5" cy="145.81143693354335" r="5.0" stroke="none" stroke-width="1.0" fill="rgb(100%, 100%, 100%)"/>
<circle cx="92.5" cy="145.81143693354335" r="5.0" stroke="rgb(100%, 100%, 100%)" stroke-width="1.0" fill="none"/>
<text x="92.5" y="148.81143693354335" text-anchor="middle" font-family="Verdana" font-size="7.5" fill="rgb(100%, 100%, 100%)" >A</text>
<circle cx="92.5" cy="165.81143693354335" r="5.0" stroke="none" stroke-width="1.0" fill="rgb(100%, 100%, 100%)"/>
<circle cx="92.5" cy="165.81143693354335" r="5.0" stroke="rgb(100%, 100%, 100%)" stroke-width="1.0" fill="none"/>
<text x="92.5" y="168.81143693354335" text-anchor="middle" font-family="Verdana" font-size="7.5" fill="rgb(100%, 100%, 100%)" >A</text>
<circle cx="92.5" cy="185.81143693354335" r="5.0" stroke="none" stroke-width="1.0" fill="rgb(100%, 100%, 100%)"/>
<circle cx="92.5" cy="185.81143693354335" r="5.0" stroke="rgb(100%, 100%, 100%)" stroke-width="1.0" fill="none"/>
<text x="92.5" y="188.81143693354335" text-anchor="middle" font-family="Verdana" font-size="7.5" fill="rgb(100%, 100%, 100%)" >A</text>
<circle cx="92.5" cy="205.81143693354335" r="5.0" stroke="none" stroke-width="1.0" fill="rgb(100%, 100%, 100%)"/>
<circle cx="92.5" cy="205.81143693354335" r="5.0" stroke="rgb(100%, 100%, 100%)" stroke-width="1.0" fill="none"/>
<text x="92.5" y="208.81143693354335" text-anchor="middle" font-family="Verdana" font-size="7.5" fill="rgb(100%, 100%, 100%)" >A</text>
<circle cx="92.5" cy="225.81143693354335" r="5.0" stroke="none" stroke-width="1.0" fill="rgb(100%, 100%, 100%)"/>
<circle cx="92.5" cy="225.81143693354335" r="5.0" stroke="rgb(100%, 100%, 100%)" stroke-width="1.0" fill="none"/>
<text x="92.5" y="228.81143693354335" text-anchor="middle" font-family="Verdana" font-size="7.5" fill="rgb(100%, 100%, 100%)" >A</text>
<line x1="10.0" y1="233.31143693354335" x2="10.0" y2="238.31143693354335" stroke="rgb(100%, 100%, 100%)" stroke-width="1.0" />
<text x="10.0" y="248.81143693354335" text-anchor="middle" font-family="Verdana" font-size="7.5" fill="rgb(100%, 100%, 100%)" >1</text>
<line x1="92.5" y1="233.31143693354335" x2="92.5" y2="238.31143693354335" stroke="rgb(100%, 100%, 100%)" stroke-width="1.0" />
<text x="92.5" y="248.81143693354335" text-anchor="middle" font-family="Verdana" font-size="7.5" fill="rgb(100%, 100%, 100%)" >30</text>
</svg>
