<?xml version="1.0" encoding="UTF-8"?>
<!DOCTYPE svg PUBLIC "-//W3C//DTD SVG 1.1//EN" 
"http://www.w3.org/Graphics/SVG/1.1/DTD/svg11.dtd">

<svg width="100%" height="100%" version="1.1"
xmlns="http://www.w3.org/2000/svg">
<line x1="10.0" y1="500.8114369335434" x2="10.0" y2="490.8114369335434" stroke="rgb(35%, 35%, 35%)" stroke-width="1.0" />
<line x1="10.0" y1="480.8114369335434" x2="10.0" y2="470.8114369335434" stroke="rgb(35%, 35%, 35%)" stroke-width="1.0" />
<line x1="10.0" y1="460.8114369335434" x2="10.0" y2="450.8114369335434" stroke="rgb(35%, 35%, 35%)" stroke-width="1.0" />
<line x1="10.0" y1="440.8114369335434" x2="10.0" y2="430.8114369335434" stroke="rgb(35%, 35%, 35%)" stroke-width="1.0" />
<line x1="10.0" y1="420.8114369335434" x2="10.0" y2="410.8114369335434" stroke="rgb(35%, 35%, 35%)" stroke-width="1.0" />
<line x1="10.0" y1="400.8114369335434" x2="10.0" y2="390.8114369335434" stroke="rgb(35%, 35%, 35%)" stroke-width="1.0" />
<line x1="10.0" y1="380.8114369335434" x2="10.0" y2="370.8114369335434" stroke="rgb(35%, 35%, 35%)" stroke-width="1.0" />
<line x1="10.0" y1="360.8114369335434" x2="10.0" y2="350.8114369335434" stroke="rgb(35%, 35%, 35%)" stroke-width="1.0" />
<line x1="10.0" y1="340.8114369335434" x2="10.0" y2="330.8114369335434" stroke="rgb(35%, 35%, 35%)" stroke-width="1.0" />
<line x1="10.0" y1="320.8114369335434" x2="10.0" y2="310.8114369335434" stroke="rgb(35%, 35%, 35%)" stroke-width="1.0" />
<line x1="10.0" y1="300.8114369335434" x2="10.0" y2="290.8114369335434" stroke="rgb(35%, 35%, 35%)" stroke-width="1.0" />
<line x1="10.0" y1="280.8114369335434" x2="10.0" y2="270.8114369335434" stroke="rgb(35%, 35%, 35%)" stroke-width="1.0" />
<line x1="10.0" y1="260.8114369335434" x2="10.0" y2="250.8114369335434" stroke="rgb(35%, 35%, 35%)" stroke-width="1.0" />
<line x1="10.0" y1="240.8114369335434" x2="10.0" y2="230.8114369335434" stroke="rgb(35%, 35%, 35%)" stroke-width="1.0" />
<line x1="10.0" y1="220.8114369335434" x2="10.0" y2="210.8114369335434" stroke="rgb(35%, 35%, 35%)" stroke-width="1.0" />
<line x1="10.0" y1="200.8114369335434" x2="10.0" y2="190.8114369335434" stroke="rgb(35%, 35%, 35%)" stroke-width="1.0" />
<line x1="10.0" y1="180.8114369335434" x2="10.0" y2="170.8114369335434" stroke="rgb(35%, 35%, 35%)" stroke-width="1.0" />
<line x1="10.0" y1="160.8114369335434" x2="10.0" y2="150.8114369335434" stroke="rgb(35%, 35%, 35%)" stroke-width="1.0" />
<line x1="10.0" y1="140.8114369335434" x2="10.0" y2="130.8114369335434" stroke="rgb(35%, 35%, 35%)" stroke-width="1.0" />
<line x1="10.0" y1="120.8114369335434" x2="10.0" y2="110.8114369335434" stroke="rgb(35%, 35%, 35%)" stroke-width="1.0" />
<line x1="10.0" y1="100.8114369335434" x2="10.0" y2="90.8114369335434" stroke="rgb(35%, 35%, 35%)" stroke-width="1.0" />
<line x1="10.0" y1="80.8114369335434" x2="10.0" y2="70.8114369335434" stroke="rgb(35%, 35%, 35%)" stroke-width="1.0" />
<line x1="10.0" y1="60.811436933543405" x2="10.0" y2="50.811436933543405" stroke="rgb(35%, 35%, 35%)" stroke-width="1.0" />
<line x1="10.0" y1="40.811436933543405" x2="10.0" y2="30.811436933543405" stroke="rgb(35%, 35%, 35%)" stroke-width="1.0" />
<line x1="12.142847542525644" y1="21.29389286519256" x2="15.357134364504525" y2="14.517544068350844" stroke="rgb(35%, 35%, 35%)" stroke-width="1.0" />
<line x1="22.49998190703017" y1="10.0" x2="30.00001809296984" y2="10.0" stroke="rgb(35%, 35%, 35%)" stroke-width="1.0" />
<line x1="37.14286563549548" y1="14.517544068350844" x2="40.357152457474356" y2="21.29389286519256" stroke="rgb(35%, 35%, 35%)" stroke-width="1.0" />
<line x1="42.5" y1="30.811436933543405" x2="42.5" y2="40.811436933543405" stroke="rgb(35%, 35%, 35%)" stroke-width="1.0" />
<line x1="42.5" y1="50.811436933543405" x2="42.5" y2="60.811436933543405" stroke="rgb(35%, 35%, 35%)" stroke-width="1.0" />
<line x1="42.5" y1="70.8114369335434" x2="42.5" y2="80.8114369335434" stroke="rgb(35%, 35%, 35%)" stroke-width="1.0" />
<line x1="42.5" y1="90.8114369335434" x2="42.5" y2="100.8114369335434" stroke="rgb(35%, 35%, 35%)" stroke-width="1.0" />
<line x1="42.5" y1="110.8114369335434" x2="42.5" y2="120.8114369335434" stroke="rgb(35%, 35%, 35%)" stroke-width="1.0" />
<line x1="42.5" y1="130.8114369335434" x2="42.5" y2="140.8114369335434" stroke="rgb(35%, 35%, 35%)" stroke-width="1.0" />
<line x1="42.5" y1="150.8114369335434" x2="42.5" y2="160.8114369335434" stroke="rgb(35%, 35%, 35%)" stroke-width="1.0" />
<line x1="42.5" y1="170.8114369335434" x2="42.5" y2="180.8114369335434" stroke="rgb(35%, 35%, 35%)" stroke-width="1.0" />
<line x1="42.5" y1="190.8114369335434" x2="42.5" y2="200.8114369335434" stroke="rgb(35%, 35%, 35%)" stroke-width="1.0" />
<line x1="42.5" y1="210.8114369335434" x2="42.5" y2="220.8114369335434" stroke="rgb(35%, 35%, 35%)" stroke-width="1.0" />
<line x1="42.5" y1="230.8114369335434" x2="42.5" y2="240.8114369335434" stroke="rgb(35%, 35%, 35%)" stroke-width="1.0" />
<line x1="42.5" y1="250.8114369335434" x2="42.5" y2="260.8114369335434" stroke="rgb(35%, 35%, 35%)" stroke-width="1.0" />
<line x1="42.5" y1="270.8114369335434" x2="42.5" y2="280.8114369335434" stroke="rgb(35%, 35%, 35%)" stroke-width="1.0" />
<line x1="42.5" y1="290.8114369335434" x2="42.5" y2="300.8114369335434" stroke="rgb(35%, 35%, 35%)" stroke-width="1.0" />
<line x1="42.5" y1="310.8114369335434" x2="42.5" y2="320.8114369335434" stroke="rgb(35%, 35%, 35%)" stroke-width="1.0" />
<line x1="42.5" y1="330.8114369335434" x2="42.5" y2="340.8114369335434" stroke="rgb(35%, 35%, 35%)" stroke-width="1.0" />
<line x1="42.5" y1="350.8114369335434" x2="42.5" y2="360.8114369335434" stroke="rgb(35%, 35%, 35%)" stroke-width="1.0" />
<line x1="42.5" y1="370.8114369335434" x2="42.5" y2="380.8114369335434" stroke="rgb(35%, 35%, 35%)" stroke-width="1.0" />
<line x1="42.5" y1="390.8114369335434" x2="42.5" y2="400.8114369335434" stroke="rgb(35%, 35%, 35%)" stroke-width="1.0" />
<line x1="42.5" y1="410.8114369335434" x2="42.5" y2="420.8114369335434" stroke="rgb(35%, 35%, 35%)" stroke-width="1.0" />
<line x1="42.5" y1="430.8114369335434" x2="42.5" y2="440.8114369335434" stroke="rgb(35%, 35%, 35%)" stroke-width="1.0" />
<line x1="42.5" y1="450.8114369335434" x2="42.5" y2="460.8114369335434" stroke="rgb(35%, 35%, 35%)" stroke-width="1.0" />
<line x1="42.5" y1="470.8114369335434" x2="42.5" y2="480.8114369335434" stroke="rgb(35%, 35%, 35%)" stroke-width="1.0" />
<line x1="42.5" y1="490.8114369335434" x2="42.5" y2="500.8114369335434" stroke="rgb(35%, 35%, 35%)" stroke-width="1.0" />
<line x1="47.5" y1="505.8114369335434" x2="55.0" y2="505.8114369335434" stroke="rgb(35%, 35%, 35%)" stroke-width="1.0" />
<line x1="60.0" y1="500.8114369335434" x2="60.0" y2="490.8114369335434" stroke="rgb(35%, 35%, 35%)" stroke-width="1.0" />
<line x1="60.0" y1="480.8114369335434" x2="60.0" y2="470.8114369335434" stroke="rgb(35%, 35%, 35%)" stroke-width="1.0" />
<line x1="60.0" y1="460.8114369335434" x2="60.0" y2="450.8114369335434" stroke="rgb(35%, 35%, 35%)" stroke-width="1.0" />
<line x1="60.0" y1="440.8114369335434" x2="60.0" y2="430.8114369335434" stroke="rgb(35%, 35%, 35%)" stroke-width="1.0" />
<line x1="60.0" y1="420.8114369335434" x2="60.0" y2="410.8114369335434" stroke="rgb(35%, 35%, 35%)" stroke-width="1.0" />
<line x1="60.0" y1="400.8114369335434" x2="60.0" y2="390.8114369335434" stroke="rgb(35%, 35%, 35%)" stroke-width="1.0" />
<line x1="60.0" y1="380.8114369335434" x2="60.0" y2="370.8114369335434" stroke="rgb(35%, 35%, 35%)" stroke-width="1.0" />
<line x1="60.0" y1="360.8114369335434" x2="60.0" y2="350.8114369335434" stroke="rgb(35%, 35%, 35%)" stroke-width="1.0" />
<line x1="62.142847542525644" y1="341.29389286519256" x2="65.35713436450452" y2="334.51754406835096" stroke="rgb(35%, 35%, 35%)" stroke-width="1.0" />
<line x1="72.49998190703016" y1="330.0000000000001" x2="80.00001809296984" y2="330.0000000000001" stroke="rgb(35%, 35%, 35%)" stroke-width="1.0" />
<line x1="87.14286563549548" y1="334.51754406835096" x2="90.35715245747436" y2="341.29389286519256" stroke="rgb(35%, 35%, 35%)" stroke-width="1.0" />
<line x1="92.5" y1="350.8114369335434" x2="92.5" y2="360.8114369335434" stroke="rgb(35%, 35%, 35%)" stroke-width="1.0" />
<line x1="92.5" y1="370.8114369335434" x2="92.5" y2="380.8114369335434" stroke="rgb(35%, 35%, 35%)" stroke-width="1.0" />
<line x1="92.5" y1="390.8114369335434" x2="92.5" y2="400.8114369335434" stroke="rgb(35%, 35%, 35%)" stroke-width="1.0" />
<line x1="92.5" y1="410.8114369335434" x2="92.5" y2="420.8114369335434" stroke="rgb(35%, 35%, 35%)" stroke-width="1.0" />
<line x1="92.5" y1="430.8114369335434" x2="92.5" y2="440.8114369335434" stroke="rgb(35%, 35%, 35%)" stroke-width="1.0" />
<line x1="92.5" y1="450.8114369335434" x2="92.5" y2="460.8114369335434" stroke="rgb(35%, 35%, 35%)" stroke-width="1.0" />
<line x1="92.5" y1="470.8114369335434" x2="92.5" y2="480.8114369335434" stroke="rgb(35%, 35%, 35%)" stroke-width="1.0" />
<line x1="92.5" y1="490.8114369335434" x2="92.5" y2="500.8114369335434" stroke="rgb(35%, 35%, 35%)" stroke-width="1.0" />
<line x1="15.0" y1="505.8114369335434" x2="37.5" y2="505.8114369335434" stroke="rgb(0%, 0%, 100%)" stroke-width="1.0" />
<circle cx="26.25" cy="505.8114369335434" r="2.75" stroke="none" stroke-width="1.0" fill="rgb(0%, 0%, 100%)"/>
<line x1="15.0" y1="485.8114369335434" x2="37.5" y2="485.8114369335434" stroke="rgb(0%, 0%, 100%)" stroke-width="1.0" />
<circle cx="26.25" cy="485.8114369335434" r="2.75" stroke="none" stroke-width="1.0" fill="rgb(0%, 0%, 100%)"/>
<line x1="15.0" y1="465.8114369335434" x2="37.5" y2="465.8114369335434" stroke="rgb(0%, 0%, 100%)" stroke-width="1.0" />
<circle cx="26.25" cy="465.8114369335434" r="2.75" stroke="none" stroke-width="1.0" fill="rgb(0%, 0%, 100%)"/>
<line x1="15.0" y1="445.8114369335434" x2="37.5" y2="445.8114369335434" stroke="rgb(0%, 0%, 100%)" stroke-width="1.0" />
<circle cx="26.25" cy="445.8114369335434" r="2.75" stroke="none" stroke-width="1.0" fill="rgb(0%, 0%, 100%)"/>
<line x1="15.0" y1="425.8114369335434" x2="37.5" y2="425.8114369335434" stroke="rgb(0%, 0%, 100%)" stroke-width="1.0" />
<circle cx="26.25" cy="425.8114369335434" r="2.75" stroke="none" stroke-width="1.0" fill="rgb(0%, 0%, 100%)"/>
<line x1="15.0" y1="405.8114369335434" x2="37.5" y2="405.8114369335434" stroke="rgb(0%, 0%, 100%)" stroke-width="1.0" />
<circle cx="26.25" cy="405.8114369335434" r="2.75" stroke="none" stroke-width="1.0" fill="rgb(0%, 0%, 100%)"/>
<line x1="15.0" y1="385.8114369335434" x2="37.5" y2="385.8114369335434" stroke="rgb(0%, 0%, 100%)" stroke-width="1.0" />
<circle cx="26.25" cy="385.8114369335434" r="2.75" stroke="none" stroke-width="1.0" fill="rgb(0%, 0%, 100%)"/>
<line x1="15.0" y1="365.8114369335434" x2="37.5" y2="365.8114369335434" stroke="rgb(0%, 0%, 100%)" stroke-width="1.0" />
<circle cx="26.25" cy="365.8114369335434" r="2.75" stroke="none" stroke-width="1.0" fill="rgb(0%, 0%, 100%)"/>
<line x1="15.0" y1="345.8114369335434" x2="37.5" y2="345.8114369335434" stroke="rgb(0%, 0%, 100%)" stroke-width="1.0" />
<circle cx="26.25" cy="345.8114369335434" r="2.75" stroke="none" stroke-width="1.0" fill="rgb(0%, 0%, 100%)"/>
<line x1="15.0" y1="325.8114369335434" x2="37.5" y2="325.8114369335434" stroke="rgb(0%, 0%, 100%)" stroke-width="1.0" />
<circle cx="26.25" cy="325.8114369335434" r="2.75" stroke="none" stroke-width="1.0" fill="rgb(0%, 0%, 100%)"/>
<line x1="15.0" y1="305.8114369335434" x2="37.5" y2="305.8114369335434" stroke="rgb(0%, 0%, 100%)" stroke-width="1.0" />
<circle cx="26.25" cy="305.8114369335434" r="2.75" stroke="none" stroke-width="1.0" fill="rgb(0%, 0%, 100%)"/>
<line x1="15.0" y1="285.8114369335434" x2="37.5" y2="285.8114369335434" stroke="rgb(0%, 0%, 100%)" stroke-width="1.0" />
<circle cx="26.25" cy="285.8114369335434" r="2.75" stroke="none" stroke-width="1.0" fill="rgb(0%, 0%, 100%)"/>
<line x1="15.0" y1="265.8114369335434" x2="37.5" y2="265.8114369335434" stroke="rgb(0%, 0%, 100%)" stroke-width="1.0" />
<circle cx="26.25" cy="265.8114369335434" r="2.75" stroke="none" stroke-width="1.0" fill="rgb(0%, 0%, 100%)"/>
<line x1="15.0" y1="245.8114369335434" x2="37.5" y2="245.8114369335434" stroke="rgb(0%, 0%, 100%)" stroke-width="1.0" />
<circle cx="26.25" cy="245.8114369335434" r="2.75" stroke="none" stroke-width="1.0" fill="rgb(0%, 0%, 100%)"/>
<line x1="15.0" y1="225.8114369335434" x2="37.5" y2="225.8114369335434" stroke="rgb(0%, 0%, 100%)" stroke-width="1.0" />
<circle cx="26.25" cy="225.8114369335434" r="2.75" stroke="none" stroke-width="1.0" fill="rgb(0%, 0%, 100%)"/>
<line x1="15.0" y1="205.8114369335434" x2="37.5" y2="205.8114369335434" stroke="rgb(0%, 0%, 100%)" stroke-width="1.0" />
<circle cx="26.25" cy="205.8114369335434" r="2.75" stroke="none" stroke-width="1.0" fill="rgb(0%, 0%, 100%)"/>
<line x1="15.0" y1="185.8114369335434" x2="37.5" y2="185.8114369335434" stroke="rgb(0%, 0%, 100%)" stroke-width="1.0" />
<circle cx="26.25" cy="185.8114369335434" r="2.75" stroke="none" stroke-width="1.0" fill="rgb(0%, 0%, 100%)"/>
<line x1="15.0" y1="165.8114369335434" x2="37.5" y2="165.8114369335434" stroke="rgb(0%, 0%, 100%)" stroke-width="1.0" />
<circle cx="26.25" cy="165.8114369335434" r="2.75" stroke="none" stroke-width="1.0" fill="rgb(0%, 0%, 100%)"/>
<line x1="15.0" y1="145.8114369335434" x2="37.5" y2="145.8114369335434" stroke="rgb(0%, 0%, 100%)" stroke-width="1.0" />
<circle cx="26.25" cy="145.8114369335434" r="2.75" stroke="none" stroke-width="1.0" fill="rgb(0%, 0%, 100%)"/>
<line x1="15.0" y1="125.8114369335434" x2="37.5" y2="125.8114369335434" stroke="rgb(0%, 0%, 100%)" stroke-width="1.0" />
<circle cx="26.25" cy="125.8114369335434" r="2.75" stroke="none" stroke-width="1.0" fill="rgb(0%, 0%, 100%)"/>
<line x1="15.0" y1="105.8114369335434" x2="37.5" y2="105.8114369335434" stroke="rgb(0%, 0%, 100%)" stroke-width="1.0" />
<circle cx="26.25" cy="105.8114369335434" r="2.75" stroke="none" stroke-width="1.0" fill="rgb(0%, 0%, 100%)"/>
<line x1="15.0" y1="85.8114369335434" x2="37.5" y2="85.8114369335434" stroke="rgb(0%, 0%, 100%)" stroke-width="1.0" />
<circle cx="26.25" cy="85.8114369335434" r="2.75" stroke="none" stroke-width="1.0" fill="rgb(0%, 0%, 100%)"/>
<line x1="15.0" y1="65.8114369335434" x2="37.5" y2="65.8114369335434" stroke="rgb(0%, 0%, 100%)" stroke-width="1.0" />
<circle cx="26.25" cy="65.8114369335434" r="2.75" stroke="none" stroke-width="1.0" fill="rgb(0%, 0%, 100%)"/>
<line x1="15.0" y1="45.811436933543405" x2="37.5" y2="45.811436933543405" stroke="rgb(0%, 0%, 100%)" stroke-width="1.0" />
<circle cx="26.25" cy="45.811436933543405" r="2.75" stroke="none" stroke-width="1.0" fill="rgb(0%, 0%, 100%)"/>
<line x1="15.0" y1="25.811436933543405" x2="37.5" y2="25.811436933543405" stroke="rgb(0%, 0%, 100%)" stroke-width="1.0" />
<circle cx="26.25" cy="25.811436933543405" r="2.75" stroke="none" stroke-width="1.0" fill="rgb(0%, 0%, 100%)"/>
<line x1="65.0" y1="505.8114369335434" x2="87.5" y2="505.8114369335434" stroke="rgb(0%, 0%, 100%)" stroke-width="1.0" />
<circle cx="76.25" cy="505.8114369335434" r="2.75" stroke="none" stroke-width="1.0" fill="rgb(0%, 0%, 100%)"/>
<line x1="65.0" y1="485.8114369335434" x2="87.5" y2="485.8114369335434" stroke="rgb(0%, 0%, 100%)" stroke-width="1.0" />
<circle cx="76.25" cy="485.8114369335434" r="2.75" stroke="none" stroke-width="1.0" fill="rgb(0%, 0%, 100%)"/>
<line x1="65.0" y1="465.8114369335434" x2="87.5" y2="465.8114369335434" stroke="rgb(0%, 0%, 100%)" stroke-width="1.0" />
<circle cx="76.25" cy="465.8114369335434" r="2.75" stroke="none" stroke-width="1.0" fill="rgb(0%, 0%, 100%)"/>
<line x1="65.0" y1="445.8114369335434" x2="87.5" y2="445.8114369335434" stroke="rgb(0%, 0%, 100%)" stroke-width="1.0" />
<circle cx="76.25" cy="445.8114369335434" r="2.75" stroke="none" stroke-width="1.0" fill="rgb(0%, 0%, 100%)"/>
<line x1="65.0" y1="425.8114369335434" x2="87.5" y2="425.8114369335434" stroke="rgb(0%, 0%, 100%)" stroke-width="1.0" />
<circle cx="76.25" cy="425.8114369335434" r="2.75" stroke="none" stroke-width="1.0" fill="rgb(0%, 0%, 100%)"/>
<line x1="65.0" y1="405.8114369335434" x2="87.5" y2="405.8114369335434" stroke="rgb(0%, 0%, 100%)" stroke-width="1.0" />
<circle cx="76.25" cy="405.8114369335434" r="2.75" stroke="none" stroke-width="1.0" fill="rgb(0%, 0%, 100%)"/>
<line x1="65.0" y1="385.8114369335434" x2="87.5" y2="385.8114369335434" stroke="rgb(0%, 0%, 100%)" stroke-width="1.0" />
<circle cx="76.25" cy="385.8114369335434" r="2.75" stroke="none" stroke-width="1.0" fill="rgb(0%, 0%, 100%)"/>
<line x1="65.0" y1="365.8114369335434" x2="87.5" y2="365.8114369335434" stroke="rgb(0%, 0%, 100%)" stroke-width="1.0" />
<circle cx="76.25" cy="365.8114369335434" r="2.75" stroke="none" stroke-width="1.0" fill="rgb(0%, 0%, 100%)"/>
<line x1="65.0" y1="345.8114369335434" x2="87.5" y2="345.8114369335434" stroke="rgb(0%, 0%, 100%)" stroke-width="1.0" />
<circle cx="76.25" cy="345.8114369335434" r="2.75" stroke="none" stroke-width="1.0" fill="rgb(0%, 0%, 100%)"/>
<circle cx="10.0" cy="505.8114369335434" r="5.0" stroke="none" stroke-width="1.0" fill="rgb(100%, 100%, 100%)"/>
<circle cx="10.0" cy="505.8114369335434" r="5.0" stroke="rgb(100%, 100%, 100%)" stroke-width="1.0" fill="none"/>
<text x="10.0" y="508.8114369335434" text-anchor="middle" font-family="Verdana" font-size="7.5" fill="rgb(100%, 100%, 100%)" >A</text>
<circle cx="10.0" cy="485.8114369335434" r="5.0" stroke="none" stroke-width="1.0" fill="rgb(100%, 100%, 100%)"/>
<circle cx="10.0" cy="485.8114369335434" r="5.0" stroke="rgb(100%, 100%, 100%)" stroke-width="1.0" fill="none"/>
<text x="10.0" y="488.8114369335434" text-anchor="middle" font-family="Verdana" font-size="7.5" fill="rgb(100%, 100%, 100%)" >A</text>
<circle cx="10.0" cy="465.8114369335434" r="5.0" stroke="none" stroke-width="1.0" fill="rgb(100%, 100%, 100%)"/>
<circle cx="10.0" cy="465.8114369335434" r="5.0" stroke="rgb(100%, 100%, 100%)" stroke-width="1.0" fill="none"/>
<text x="10.0" y="468.8114369335434" text-anchor="middle" font-family="Verdana" font-size="7.5" fill="rgb(100%, 100%, 100%)" >A</text>
<circle cx="10.0" cy="445.8114369335434" r="5.0" stroke="none" stroke-width="1.0" fill="rgb(100%, 100%, 100%)"/>
<circle cx="10.0" cy="445.8114369335434" r="5.0" stroke="rgb(100%, 100%, 100%)" stroke-width="1.0" fill="none"/>
<text x="10.0" y="448.8114369335434" text-anchor="middle" font-family="Verdana" font-size="7.5" fill="rgb(100%, 100%, 100%)" >A</text>
<circle cx="10.0" cy="425.8114369335434" r="5.0" stroke="none" stroke-width="1.0" fill="rgb(100%, 100%, 100%)"/>
<circle cx="10.0" cy="425.8114369335434" r="5.0" stroke="rgb(100%, 100%, 100%)" stroke-width="1.0" fill="none"/>
<text x="10.0" y="428.8114369335434" text-anchor="middle" font-family="Verdana" font-size="7.5" fill="rgb(100%, 100%, 100%)" >A</text>
<circle cx="10.0" cy="405.8114369335434" r="5.0" stroke="none" stroke-width="1.0" fill="rgb(100%, 100%, 100%)"/>
<circle cx="10.0" cy="405.8114369335434" r="5.0" stroke="rgb(100%, 100%, 100%)" stroke-width="1.0" fill="none"/>
<text x="10.0" y="408.8114369335434" text-anchor="middle" font-family="Verdana" font-size="7.5" fill="rgb(100%, 100%, 100%)" >A</text>
<circle cx="10.0" cy="385.8114369335434" r="5.0" stroke="none" stroke-width="1.0" fill="rgb(100%, 100%, 100%)"/>
<circle cx="10.0" cy="385.8114369335434" r="5.0" stroke="rgb(100%, 100%, 100%)" stroke-width="1.0" fill="none"/>
<text x="10.0" y="388.8114369335434" text-anchor="middle" font-family="Verdana" font-size="7.5" fill="rgb(100%, 100%, 100%)" >A</text>
<circle cx="10.0" cy="365.8114369335434" r="5.0" stroke="none" stroke-width="1.0" fill="rgb(100%, 100%, 100%)"/>
<circle cx="10.0" cy="365.8114369335434" r="5.0" stroke="rgb(100%, 100%, 100%)" stroke-width="1.0" fill="none"/>
<text x="10.0" y="368.8114369335434" text-anchor="middle" font-family="Verdana" font-size="7.5" fill="rgb(100%, 100%, 100%)" >A</text>
<circle cx="10.0" cy="345.8114369335434" r="5.0" stroke="none" stroke-width="1.0" fill="rgb(100%, 100%, 100%)"/>
<circle cx="10.0" cy="345.8114369335434" r="5.0" stroke="rgb(100%, 100%, 100%)" stroke-width="1.0" fill="none"/>
<text x="10.0" y="348.8114369335434" text-anchor="middle" font-family="Verdana" font-size="7.5" fill="rgb(100%, 100%, 100%)" >A</text>
<circle cx="10.0" cy="325.8114369335434" r="5.0" stroke="none" stroke-width="1.0" fill="rgb(100%, 100%, 100%)"/>
<circle cx="10.0" cy="325.8114369335434" r="5.0" stroke="rgb(100%, 100%, 100%)" stroke-width="1.0" fill="none"/>
<text x="10.0" y="328.8114369335434" text-anchor="middle" font-family="Verdana" font-size="7.5" fill="rgb(100%, 100%, 100%)" >A</text>
<circle cx="10.0" cy="305.8114369335434" r="5.0" stroke="none" stroke-width="1.0" fill="rgb(100%, 100%, 100%)"/>
<circle cx="10.0" cy="305.8114369335434" r="5.0" stroke="rgb(100%, 100%, 100%)" stroke-width="1.0" fill="none"/>
<text x="10.0" y="308.8114369335434" text-anchor="middle" font-family="Verdana" font-size="7.5" fill="rgb(100%, 100%, 100%)" >A</text>
<circle cx="10.0" cy="285.8114369335434" r="5.0" stroke="none" stroke-width="1.0" fill="rgb(100%, 100%, 100%)"/>
<circle cx="10.0" cy="285.8114369335434" r="5.0" stroke="rgb(100%, 100%, 100%)" stroke-width="1.0" fill="none"/>
<text x="10.0" y="288.8114369335434" text-anchor="middle" font-family="Verdana" font-size="7.5" fill="rgb(100%, 100%, 100%)" >A</text>
<circle cx="10.0" cy="265.8114369335434" r="5.0" stroke="none" stroke-width="1.0" fill="rgb(100%, 100%, 100%)"/>
<circle cx="10.0" cy="265.8114369335434" r="5.0" stroke="rgb(100%, 100%, 100%)" stroke-width="1.0" fill="none"/>
<text x="10.0" y="268.8114369335434" text-anchor="middle" font-family="Verdana" font-size="7.5" fill="rgb(100%, 100%, 100%)" >A</text>
<circle cx="10.0" cy="245.8114369335434" r="5.0" stroke="none" stroke-width="1.0" fill="rgb(100%, 100%, 100%)"/>
<circle cx="10.0" cy="245.8114369335434" r="5.0" stroke="rgb(100%, 100%, 100%)" stroke-width="1.0" fill="none"/>
<text x="10.0" y="248.8114369335434" text-anchor="middle" font-family="Verdana" font-size="7.5" fill="rgb(100%, 100%, 100%)" >A</text>
<circle cx="10.0" cy="225.8114369335434" r="5.0" stroke="none" stroke-width="1.0" fill="rgb(100%, 100%, 100%)"/>
<circle cx="10.0" cy="225.8114369335434" r="5.0" stroke="rgb(100%, 100%, 100%)" stroke-width="1.0" fill="none"/>
<text x="10.0" y="228.8114369335434" text-anchor="middle" font-family="Verdana" font-size="7.5" fill="rgb(100%, 100%, 100%)" >A</text>
<circle cx="10.0" cy="205.8114369335434" r="5.0" stroke="none" stroke-width="1.0" fill="rgb(100%, 100%, 100%)"/>
<circle cx="10.0" cy="205.8114369335434" r="5.0" stroke="rgb(100%, 100%, 100%)" stroke-width="1.0" fill="none"/>
<text x="10.0" y="208.8114369335434" text-anchor="middle" font-family="Verdana" font-size="7.5" fill="rgb(100%, 100%, 100%)" >A</text>
<circle cx="10.0" cy="185.8114369335434" r="5.0" stroke="none" stroke-width="1.0" fill="rgb(100%, 100%, 100%)"/>
<circle cx="10.0" cy="185.8114369335434" r="5.0" stroke="rgb(100%, 100%, 100%)" stroke-width="1.0" fill="none"/>
<text x="10.0" y="188.8114369335434" text-anchor="middle" font-family="Verdana" font-size="7.5" fill="rgb(100%, 100%, 100%)" >A</text>
<circle cx="10.0" cy="165.8114369335434" r="5.0" stroke="none" stroke-width="1.0" fill="rgb(100%, 100%, 100%)"/>
<circle cx="10.0" cy="165.8114369335434" r="5.0" stroke="rgb(100%, 100%, 100%)" stroke-width="1.0" fill="none"/>
<text x="10.0" y="168.8114369335434" text-anchor="middle" font-family="Verdana" font-size="7.5" fill="rgb(100%, 100%, 100%)" >A</text>
<circle cx="10.0" cy="145.8114369335434" r="5.0" stroke="none" stroke-width="1.0" fill="rgb(100%, 100%, 100%)"/>
<circle cx="10.0" cy="145.8114369335434" r="5.0" stroke="rgb(100%, 100%, 100%)" stroke-width="1.0" fill="none"/>
<text x="10.0" y="148.8114369335434" text-anchor="middle" font-family="Verdana" font-size="7.5" fill="rgb(100%, 100%, 100%)" >A</text>
<circle cx="10.0" cy="125.8114369335434" r="5.0" stroke="none" stroke-width="1.0" fill="rgb(100%, 100%, 100%)"/>
<circle cx="10.0" cy="125.8114369335434" r="5.0" stroke="rgb(100%, 100%, 100%)" stroke-width="1.0" fill="none"/>
<text x="10.0" y="128.8114369335434" text-anchor="middle" font-family="Verdana" font-size="7.5" fill="rgb(100%, 100%, 100%)" >A</text>
<circle cx="10.0" cy="105.8114369335434" r="5.0" stroke="none" stroke-width="1.0" fill="rgb(100%, 100%, 100%)"/>
<circle cx="10.0" cy="105.8114369335434" r="5.0" stroke="rgb(100%, 100%, 100%)" stroke-width="1.0" fill="none"/>
<text x="10.0" y="108.8114369335434" text-anchor="middle" font-family="Verdana" font-size="7.5" fill="rgb(100%, 100%, 100%)" >A</text>
<circle cx="10.0" cy="85.8114369335434" r="5.0" stroke="none" stroke-width="1.0" fill="rgb(100%, 100%, 100%)"/>
<circle cx="10.0" cy="85.8114369335434" r="5.0" stroke="rgb(100%, 100%, 100%)" stroke-width="1.0" fill="none"/>
<text x="10.0" y="88.8114369335434" text-anchor="middle" font-family="Verdana" font-size="7.5" fill="rgb(100%, 100%, 100%)" >A</text>
<circle cx="10.0" cy="65.8114369335434" r="5.0" stroke="none" stroke-width="1.0" fill="rgb(100%, 100%, 100%)"/>
<circle cx="10.0" cy="65.8114369335434" r="5.0" stroke="rgb(100%, 100%, 100%)" stroke-width="1.0" fill="none"/>
<text x="10.0" y="68.8114369335434" text-anchor="middle" font-family="Verdana" font-size="7.5" fill="rgb(100%, 100%, 100%)" >A</text>
<circle cx="10.0" cy="45.811436933543405" r="5.0" stroke="none" stroke-width="1.0" fill="rgb(100%, 100%, 100%)"/>
<circle cx="10.0" cy="45.811436933543405" r="5.0" stroke="rgb(100%, 100%, 100%)" stroke-width="1.0" fill="none"/>
<text x="10.0" y="48.811436933543405" text-anchor="middle" font-family="Verdana" font-size="7.5" fill="rgb(100%, 100%, 100%)" >A</text>
<circle cx="10.0" cy="25.811436933543405" r="5.0" stroke="none" stroke-width="1.0" fill="rgb(100%, 100%, 100%)"/>
<circle cx="10.0" cy="25.811436933543405" r="5.0" stroke="rgb(100%, 100%, 100%)" stroke-width="1.0" fill="none"/>
<text x="10.0" y="28.811436933543405" text-anchor="middle" font-family="Verdana" font-size="7.5" fill="rgb(100%, 100%, 100%)" >A</text>
<circle cx="17.49998190703017" cy="10.0" r="5.0" stroke="none" stroke-width="1.0" fill="rgb(100%, 100%, 100%)"/>
<circle cx="17.49998190703017" cy="10.0" r="5.0" stroke="rgb(100%, 100%, 100%)" stroke-width="1.0" fill="none"/>
<text x="17.49998190703017" y="13.0" text-anchor="middle" font-family="Verdana" font-size="7.5" fill="rgb(100%, 100%, 100%)" >A</text>
<circle cx="35.00001809296984" cy="10.0" r="5.0" stroke="none" stroke-width="1.0" fill="rgb(100%, 100%, 100%)"/>
<circle cx="35.00001809296984" cy="10.0" r="5.0" stroke="rgb(100%, 100%, 100%)" stroke-width="1.0" fill="none"/>
<text x="35.00001809296984" y="13.0" text-anchor="middle" font-family="Verdana" font-size="7.5" fill="rgb(100%, 100%, 100%)" >A</text>
<circle cx="42.5" cy="25.811436933543405" r="5.0" stroke="none" stroke-width="1.0" fill="rgb(100%, 100%, 100%)"/>
<circle cx="42.5" cy="25.811436933543405" r="5.0" stroke="rgb(100%, 100%, 100%)" stroke-width="1.0" fill="none"/>
<text x="42.5" y="28.811436933543405" text-anchor="middle" font-family="Verdana" font-size="7.5" fill="rgb(100%, 100%, 100%)" >A</text>
<circle cx="42.5" cy="45.811436933543405" r="5.0" stroke="none" stroke-width="1.0" fill="rgb(100%, 100%, 100%)"/>
<circle cx="42.5" cy="45.811436933543405" r="5.0" stroke="rgb(100%, 100%, 100%)" stroke-width="1.0" fill="none"/>
<text x="42.5" y="48.811436933543405" text-anchor="middle" font-family="Verdana" font-size="7.5" fill="rgb(100%, 100%, 100%)" >A</text>
<circle cx="42.5" cy="65.8114369335434" r="5.0" stroke="none" stroke-width="1.0" fill="rgb(100%, 100%, 100%)"/>
<circle cx="42.5" cy="65.8114369335434" r="5.0" stroke="rgb(100%, 100%, 100%)" stroke-width="1.0" fill="none"/>
<text x="42.5" y="68.8114369335434" text-anchor="middle" font-family="Verdana" font-size="7.5" fill="rgb(100%, 100%, 100%)" >A</text>
<circle cx="42.5" cy="85.8114369335434" r="5.0" stroke="none" stroke-width="1.0" fill="rgb(100%, 100%, 100%)"/>
<circle cx="42.5" cy="85.8114369335434" r="5.0" stroke="rgb(100%, 100%, 100%)" stroke-width="1.0" fill="none"/>
<text x="42.5" y="88.8114369335434" text-anchor="middle" font-family="Verdana" font-size="7.5" fill="rgb(100%, 100%, 100%)" >A</text>
<circle cx="42.5" cy="105.8114369335434" r="5.0" stroke="none" stroke-width="1.0" fill="rgb(100%, 100%, 100%)"/>
<circle cx="42.5" cy="105.8114369335434" r="5.0" stroke="rgb(100%, 100%, 100%)" stroke-width="1.0" fill="none"/>
<text x="42.5" y="108.8114369335434" text-anchor="middle" font-family="Verdana" font-size="7.5" fill="rgb(100%, 100%, 100%)" >A</text>
<circle cx="42.5" cy="125.8114369335434" r="5.0" stroke="none" stroke-width="1.0" fill="rgb(100%, 100%, 100%)"/>
<circle cx="42.5" cy="125.8114369335434" r="5.0" stroke="rgb(100%, 100%, 100%)" stroke-width="1.0" fill="none"/>
<text x="42.5" y="128.8114369335434" text-anchor="middle" font-family="Verdana" font-size="7.5" fill="rgb(100%, 100%, 100%)" >A</text>
<circle cx="42.5" cy="145.8114369335434" r="5.0" stroke="none" stroke-width="1.0" fill="rgb(100%, 100%, 100%)"/>
<circle cx="42.5" cy="145.8114369335434" r="5.0" stroke="rgb(100%, 100%, 100%)" stroke-width="1.0" fill="none"/>
<text x="42.5" y="148.8114369335434" text-anchor="middle" font-family="Verdana" font-size="7.5" fill="rgb(100%, 100%, 100%)" >A</text>
<circle cx="42.5" cy="165.8114369335434" r="5.0" stroke="none" stroke-width="1.0" fill="rgb(100%, 100%, 100%)"/>
<circle cx="42.5" cy="165.8114369335434" r="5.0" stroke="rgb(100%, 100%, 100%)" stroke-width="1.0" fill="none"/>
<text x="42.5" y="168.8114369335434" text-anchor="middle" font-family="Verdana" font-size="7.5" fill="rgb(100%, 100%, 100%)" >A</text>
<circle cx="42.5" cy="185.8114369335434" r="5.0" stroke="none" stroke-width="1.0" fill="rgb(100%, 100%, 100%)"/>
<circle cx="42.5" cy="185.8114369335434" r="5.0" stroke="rgb(100%, 100%, 100%)" stroke-width="1.0" fill="none"/>
<text x="42.5" y="188.8114369335434" text-anchor="middle" font-family="Verdana" font-size="7.5" fill="rgb(100%, 100%, 100%)" >A</text>
<circle cx="42.5" cy="205.8114369335434" r="5.0" stroke="none" stroke-width="1.0" fill="rgb(100%, 100%, 100%)"/>
<circle cx="42.5" cy="205.8114369335434" r="5.0" stroke="rgb(100%, 100%, 100%)" stroke-width="1.0" fill="none"/>
<text x="42.5" y="208.8114369335434" text-anchor="middle" font-family="Verdana" font-size="7.5" fill="rgb(100%, 100%, 100%)" >A</text>
<circle cx="42.5" cy="225.8114369335434" r="5.0" stroke="none" stroke-width="1.0" fill="rgb(100%, 100%, 100%)"/>
<circle cx="42.5" cy="225.8114369335434" r="5.0" stroke="rgb(100%, 100%, 100%)" stroke-width="1.0" fill="none"/>
<text x="42.5" y="228.8114369335434" text-anchor="middle" font-family="Verdana" font-size="7.5" fill="rgb(100%, 100%, 100%)" >A</text>
<circle cx="42.5" cy="245.8114369335434" r="5.0" stroke="none" stroke-width="1.0" fill="rgb(100%, 100%, 100%)"/>
<circle cx="42.5" cy="245.8114369335434" r="5.0" stroke="rgb(100%, 100%, 100%)" stroke-width="1.0" fill="none"/>
<text x="42.5" y="248.8114369335434" text-anchor="middle" font-family="Verdana" font-size="7.5" fill="rgb(100%, 100%, 100%)" >A</text>
<circle cx="42.5" cy="265.8114369335434" r="5.0" stroke="none" stroke-width="1.0" fill="rgb(100%, 100%, 100%)"/>
<circle cx="42.5" cy="265.8114369335434" r="5.0" stroke="rgb(100%, 100%, 100%)" stroke-width="1.0" fill="none"/>
<text x="42.5" y="268.8114369335434" text-anchor="middle" font-family="Verdana" font-size="7.5" fill="rgb(100%, 100%, 100%)" >A</text>
<circle cx="42.5" cy="285.8114369335434" r="5.0" stroke="none" stroke-width="1.0" fill="rgb(100%, 100%, 100%)"/>
<circle cx="42.5" cy="285.8114369335434" r="5.0" stroke="rgb(100%, 100%, 100%)" stroke-width="1.0" fill="none"/>
<text x="42.5" y="288.8114369335434" text-anchor="middle" font-family="Verdana" font-size="7.5" fill="rgb(100%, 100%, 100%)" >A</text>
<circle cx="42.5" cy="305.8114369335434" r="5.0" stroke="none" stroke-width="1.0" fill="rgb(100%, 100%, 100%)"/>
<circle cx="42.5" cy="305.8114369335434" r="5.0" stroke="rgb(100%, 100%, 100%)" stroke-width="1.0" fill="none"/>
<text x="42.5" y="308.8114369335434" text-anchor="middle" font-family="Verdana" font-size="7.5" fill="rgb(100%, 100%, 100%)" >A</text>
<circle cx="42.5" cy="325.8114369335434" r="5.0" stroke="none" stroke-width="1.0" fill="rgb(100%, 100%, 100%)"/>
<circle cx="42.5" cy="325.8114369335434" r="5.0" stroke="rgb(100%, 100%, 100%)" stroke-width="1.0" fill="none"/>
<text x="42.5" y="328.8114369335434" text-anchor="middle" font-family="Verdana" font-size="7.5" fill="rgb(100%, 100%, 100%)" >A</text>
<circle cx="42.5" cy="345.8114369335434" r="5.0" stroke="none" stroke-width="1.0" fill="rgb(100%, 100%, 100%)"/>
<circle cx="42.5" cy="345.8114369335434" r="5.0" stroke="rgb(100%, 100%, 100%)" stroke-width="1.0" fill="none"/>
<text x="42.5" y="348.8114369335434" text-anchor="middle" font-family="Verdana" font-size="7.5" fill="rgb(100%, 100%, 100%)" >A</text>
<circle cx="42.5" cy="365.8114369335434" r="5.0" stroke="none" stroke-width="1.0" fill="rgb(100%, 100%, 100%)"/>
<circle cx="42.5" cy="365.8114369335434" r="5.0" stroke="rgb(100%, 100%, 100%)" stroke-width="1.0" fill="none"/>
<text x="42.5" y="368.8114369335434" text-anchor="middle" font-family="Verdana" font-size="7.5" fill="rgb(100%, 100%, 100%)" >A</text>
<circle cx="42.5" cy="385.8114369335434" r="5.0" stroke="none" stroke-width="1.0" fill="rgb(100%, 100%, 100%)"/>
<circle cx="42.5" cy="385.8114369335434" r="5.0" stroke="rgb(100%, 100%, 100%)" stroke-width="1.0" fill="none"/>
<text x="42.5" y="388.8114369335434" text-anchor="middle" font-family="Verdana" font-size="7.5" fill="rgb(100%, 100%, 100%)" >A</text>
<circle cx="42.5" cy="405.8114369335434" r="5.0" stroke="none" stroke-width="1.0" fill="rgb(100%, 100%, 100%)"/>
<circle cx="42.5" cy="405.8114369335434" r="5.0" stroke="rgb(100%, 100%, 100%)" stroke-width="1.0" fill="none"/>
<text x="42.5" y="408.8114369335434" text-anchor="middle" font-family="Verdana" font-size="7.5" fill="rgb(100%, 100%, 100%)" >A</text>
<circle cx="42.5" cy="425.8114369335434" r="5.0" stroke="none" stroke-width="1.0" fill="rgb(100%, 100%, 100%)"/>
<circle cx="42.5" cy="425.8114369335434" r="5.0" stroke="rgb(100%, 100%, 100%)" stroke-width="1.0" fill="none"/>
<text x="42.5" y="428.8114369335434" text-anchor="middle" font-family="Verdana" font-size="7.5" fill="rgb(100%, 100%, 100%)" >A</text>
<circle cx="42.5" cy="445.8114369335434" r="5.0" stroke="none" stroke-width="1.0" fill="rgb(100%, 100%, 100%)"/>
<circle cx="42.5" cy="445.8114369335434" r="5.0" stroke="rgb(100%, 100%, 100%)" stroke-width="1.0" fill="none"/>
<text x="42.5" y="448.8114369335434" text-anchor="middle" font-family="Verdana" font-size="7.5" fill="rgb(100%, 100%, 100%)" >A</text>
<circle cx="42.5" cy="465.8114369335434" r="5.0" stroke="none" stroke-width="1.0" fill="rgb(100%, 100%, 100%)"/>
<circle cx="42.5" cy="465.8114369335434" r="5.0" stroke="rgb(100%, 100%, 100%)" stroke-width="1.0" fill="none"/>
<text x="42.5" y="468.8114369335434" text-anchor="middle" font-family="Verdana" font-size="7.5" fill="rgb(100%, 100%, 100%)" >A</text>
<circle cx="42.5" cy="485.8114369335434" r="5.0" stroke="none" stroke-width="1.0" fill="rgb(100%, 100%, 100%)"/>
<circle cx="42.5" cy="485.8114369335434" r="5.0" stroke="rgb(100%, 100%, 100%)" stroke-width="1.0" fill="none"/>
<text x="42.5" y="488.8114369335434" text-anchor="middle" font-family="Verdana" font-size="7.5" fill="rgb(100%, 100%, 100%)" >A</text>
<circle cx="42.5" cy="505.8114369335434" r="5.0" stroke="none" stroke-width="1.0" fill="rgb(100%, 100%, 100%)"/>
<circle cx="42.5" cy="505.8114369335434" r="5.0" stroke="rgb(100%, 100%, 100%)" stroke-width="1.0" fill="none"/>
<text x="42.5" y="508.8114369335434" text-anchor="middle" font-family="Verdana" font-size="7.5" fill="rgb(100%, 100%, 100%)" >A</text>
<circle cx="60.0" cy="505.8114369335434" r="5.0" stroke="none" stroke-width="1.0" fill="rgb(100%, 100%, 100%)"/>
<circle cx="60.0" cy="505.8114369335434" r="5.0" stroke="rgb(100%, 100%, 100%)" stroke-width="1.0" fill="none"/>
<text x="60.0" y="508.8114369335434" text-anchor="middle" font-family="Verdana" font-size="7.5" fill="rgb(100%, 100%, 100%)" >A</text>
<circle cx="60.0" cy="485.8114369335434" r="5.0" stroke="none" stroke-width="1.0" fill="rgb(100%, 100%, 100%)"/>
<circle cx="60.0" cy="485.8114369335434" r="5.0" stroke="rgb(100%, 100%, 100%)" stroke-width="1.0" fill="none"/>
<text x="60.0" y="488.8114369335434" text-anchor="middle" font-family="Verdana" font-size="7.5" fill="rgb(100%, 100%, 100%)" >A</text>
<circle cx="60.0" cy="465.8114369335434" r="5.0" stroke="none" stroke-width="1.0" fill="rgb(100%, 100%, 100%)"/>
<circle cx="60.0" cy="465.8114369335434" r="5.0" stroke="rgb(100%, 100%, 100%)" stroke-width="1.0" fill="none"/>
<text x="60.0" y="468.8114369335434" text-anchor="middle" font-family="Verdana" font-size="7.5" fill="rgb(100%, 100%, 100%)" >A</text>
<circle cx="60.0" cy="445.8114369335434" r="5.0" stroke="none" stroke-width="1.0" fill="rgb(100%, 100%, 100%)"/>
<circle cx="60.0" cy="445.8114369335434" r="5.0" stroke="rgb(100%, 100%, 100%)" stroke-width="1.0" fill="none"/>
<text x="60.0" y="448.8114369335434" text-anchor="middle" font-family="Verdana" font-size="7.5" fill="rgb(100%, 100%, 100%)" >A</text>
<circle cx="60.0" cy="425.8114369335434" r="5.0" stroke="none" stroke-width="1.0" fill="rgb(100%, 100%, 100%)"/>
<circle cx="60.0" cy="425.8114369335434" r="5.0" stroke="rgb(100%, 100%, 100%)" stroke-width="1.0" fill="none"/>
<text x="60.0" y="428.8114369335434" text-anchor="middle" font-family="Verdana" font-size="7.5" fill="rgb(100%, 100%, 100%)" >A</text>
<circle cx="60.0" cy="405.8114369335434" r="5.0" stroke="none" stroke-width="1.0" fill="rgb(100%, 100%, 100%)"/>
<circle cx="60.0" cy="405.8114369335434" r="5.0" stroke="rgb(100%, 100%, 100%)" stroke-width="1.0" fill="none"/>
<text x="60.0" y="408.8114369335434" text-anchor="middle" font-family="Verdana" font-size="7.5" fill="rgb(100%, 100%, 100%)" >A</text>
<circle cx="60.0" cy="385.8114369335434" r="5.0" stroke="none" stroke-width="1.0" fill="rgb(100%, 100%, 100%)"/>
<circle cx="60.0" cy="385.8114369335434" r="5.0" stroke="rgb(100%, 100%, 100%)" stroke-width="1.0" fill="none"/>
<text x="60.0" y="388.8114369335434" text-anchor="middle" font-family="Verdana" font-size="7.5" fill="rgb(100%, 100%, 100%)" >A</text>
<circle cx="60.0" cy="365.8114369335434" r="5.0" stroke="none" stroke-width="1.0" fill="rgb(100%, 100%, 100%)"/>
<circle cx="60.0" cy="365.8114369335434" r="5.0" stroke="rgb(100%, 100%, 100%)" stroke-width="1.0" fill="none"/>
<text x="60.0" y="368.8114369335434" text-anchor="middle" font-family="Verdana" font-size="7.5" fill="rgb(100%, 100%, 100%)" >A</text>
<circle cx="60.0" cy="345.8114369335434" r="5.0" stroke="none" stroke-width="1.0" fill="rgb(100%, 100%, 100%)"/>
<circle cx="60.0" cy="345.8114369335434" r="5.0" stroke="rgb(100%, 100%, 100%)" stroke-width="1.0" fill="none"/>
<text x="60.0" y="348.8114369335434" text-anchor="middle" font-family="Verdana" font-size="7.5" fill="rgb(100%, 100%, 100%)" >A</text>
<circle cx="67.49998190703016" cy="330.0000000000001" r="5.0" stroke="none" stroke-width="1.0" fill="rgb(100%, 100%, 100%)"/>
<circle cx="67.49998190703016" cy="330.0000000000001" r="5.0" stroke="rgb(100%, 100%, 100%)" stroke-width="1.0" fill="none"/>
<text x="67.49998190703016" y="333.0000000000001" text-anchor="middle" font-family="Verdana" font-size="7.5" fill="rgb(100%, 100%, 100%)" >A</text>
<circle cx="85.00001809296984" cy="330.0000000000001" r="5.0" stroke="none" stroke-width="1.0" fill="rgb(100%, 100%, 100%)"/>
<circle cx="85.00001809296984" cy="330.0000000000001" r="5.0" stroke="rgb(100%, 100%, 100%)" stroke-width="1.0" fill="none"/>
<text x="85.00001809296984" y="333.0000000000001" text-anchor="middle" font-family="Verdana" font-size="7.5" fill="rgb(100%, 100%, 100%)" >A</text>
<circle cx="92.5" cy="345.8114369335434" r="5.0" stroke="none" stroke-width="1.0" fill="rgb(100%, 100%, 100%)"/>
<circle cx="92.5" cy="345.8114369335434" r="5.0" stroke="rgb(100%, 100%, 100%)" stroke-width="1.0" fill="none"/>
<text x="92.5" y="348.8114369335434" text-anchor="middle" font-family="Verdana" font-size="7.5" fill="rgb(100%, 100%, 100%)" >A</text>
<circle cx="92.5" cy="365.8114369335434" r="5.0" stroke="none" stroke-width="1.0" fill="rgb(100%, 100%, 100%)"/>
<circle cx="92.5" cy="365.8114369335434" r="5.0" stroke="rgb(100%, 100%, 100%)" stroke-width="1.0" fill="none"/>
<text x="92.5" y="368.8114369335434" text-anchor="middle" font-family="Verdana" font-size="7.5" fill="rgb(100%, 100%, 100%)" >A</text>
<circle cx="92.5" cy="385.8114369335434" r="5.0" stroke="none" stroke-width="1.0" fill="rgb(100%, 100%, 100%)"/>
<circle cx="92.5" cy="385.8114369335434" r="5.0" stroke="rgb(100%, 100%, 100%)" stroke-width="1.0" fill="none"/>
<text x="92.5" y="388.8114369335434" text-anchor="middle" font-family="Verdana" font-size="7.5" fill="rgb(100%, 100%, 100%)" >A</text>
<circle cx="92.5" cy="405.8114369335434" r="5.0" stroke="none" stroke-width="1.0" fill="rgb(100%, 100%, 100%)"/>
<circle cx="92.5" cy="405.8114369335434" r="5.0" stroke="rgb(100%, 100%, 100%)" stroke-width="1.0" fill="none"/>
<text x="92.5" y="408.8114369335434" text-anchor="middle" font-family="Verdana" font-size="7.5" fill="rgb(100%, 100%, 100%)" >A</text>
<circle cx="92.5" cy="425.8114369335434" r="5.0" stroke="none" stroke-width="1.0" fill="rgb(100%, 100%, 100%)"/>
<circle cx="92.5" cy="425.8114369335434" r="5.0" stroke="rgb(100%, 100%, 100%)" stroke-width="1.0" fill="none"/>
<text x="92.5" y="428.8114369335434" text-anchor="middle" font-family="Verdana" font-size="7.5" fill="rgb(100%, 100%, 100%)" >A</text>
<circle cx="92.5" cy="445.8114369335434" r="5.0" stroke="none" stroke-width="1.0" fill="rgb(100%, 100%, 100%)"/>
<circle cx="92.5" cy="445.8114369335434" r="5.0" stroke="rgb(100%, 100%, 100%)" stroke-width="1.0" fill="none"/>
<text x="92.5" y="448.8114369335434" text-anchor="middle" font-family="Verdana" font-size="7.5" fill="rgb(100%, 100%, 100%)" >A</text>
<circle cx="92.5" cy="465.8114369335434" r="5.0" stroke="none" stroke-width="1.0" fill="rgb(100%, 100%, 100%)"/>
<circle cx="92.5" cy="465.8114369335434" r="5.0" stroke="rgb(100%, 100%, 100%)" stroke-width="1.0" fill="none"/>
<text x="92.5" y="468.8114369335434" text-anchor="middle" font-family="Verdana" font-size="7.5" fill="rgb(100%, 100%, 100%)" >A</text>
<circle cx="92.5" cy="485.8114369335434" r="5.0" stroke="none" stroke-width="1.0" fill="rgb(100%, 100%, 100%)"/>
<circle cx="92.5" cy="485.8114369335434" r="5.0" stroke="rgb(100%, 100%, 100%)" stroke-width="1.0" fill="none"/>
<text x="92.5" y="488.8114369335434" text-anchor="middle" font-family="Verdana" font-size="7.5" fill="rgb(100%, 100%, 100%)" >A</text>
<circle cx="92.5" cy="505.8114369335434" r="5.0" stroke="none" stroke-width="1.0" fill="rgb(100%, 100%, 100%)"/>
<circle cx="92.5" cy="505.8114369335434" r="5.0" stroke="rgb(100%, 100%, 100%)" stroke-width="1.0" fill="none"/>
<text x="92.5" y="508.8114369335434" text-anchor="middle" font-family="Verdana" font-size="7.5" fill="rgb(100%, 100%, 100%)" >A</text>
<line x1="10.0" y1="513.3114369335434" x2="10.0" y2="518.3114369335434" stroke="rgb(100%, 100%, 100%)" stroke-width="1.0" />
<text x="10.0" y="528.8114369335434" text-anchor="middle" font-family="Verdana" font-size="7.5" fill="rgb(100%, 100%, 100%)" >1</text>
<line x1="92.5" y1="513.3114369335434" x2="92.5" y2="518.3114369335434" stroke="rgb(100%, 100%, 100%)" stroke-width="1.0" />
<text x="92.5" y="528.8114369335434" text-anchor="middle" font-family="Verdana" font-size="7.5" fill="rgb(100%, 100%, 100%)" >72</text>
</svg>
