<?xml version="1.0" encoding="UTF-8"?><svg xmlns="http://www.w3.org/2000/svg" xmlns:xlink="http://www.w3.org/1999/xlink" fill-opacity="1" color-rendering="auto" color-interpolation="auto" text-rendering="auto" stroke="black" stroke-linecap="square" width="565" stroke-miterlimit="10" shape-rendering="auto" stroke-opacity="1" fill="black" stroke-dasharray="none" font-weight="normal" stroke-width="1" height="769" font-family="'Dialog'" font-style="normal" stroke-linejoin="miter" font-size="12px" stroke-dashoffset="0" image-rendering="auto">
  <!--Generated by ySVG 2.5-->
  <defs id="genericDefs"/>
  <g>
    <defs id="defs1">
      <linearGradient x1="347.5" gradientUnits="userSpaceOnUse" x2="347.5" y1="309" y2="329" id="linearGradient1" spreadMethod="pad">
        <stop stop-opacity="1" stop-color="rgb(255,230,191)" offset="0%"/>
        <stop stop-opacity="1" stop-color="rgb(255,173,51)" offset="100%"/>
      </linearGradient>
      <linearGradient x1="347.5" gradientUnits="userSpaceOnUse" x2="347.5" y1="707" y2="727" id="linearGradient2" spreadMethod="pad">
        <stop stop-opacity="1" stop-color="rgb(255,230,191)" offset="0%"/>
        <stop stop-opacity="1" stop-color="rgb(255,173,51)" offset="100%"/>
      </linearGradient>
      <linearGradient x1="495" gradientUnits="userSpaceOnUse" x2="495" y1="532" y2="552" id="linearGradient3" spreadMethod="pad">
        <stop stop-opacity="1" stop-color="rgb(255,230,191)" offset="0%"/>
        <stop stop-opacity="1" stop-color="rgb(255,173,51)" offset="100%"/>
      </linearGradient>
      <clipPath clipPathUnits="userSpaceOnUse" id="clipPath1">
        <path d="M0 0 L565 0 L565 769 L0 769 L0 0 Z"/>
      </clipPath>
      <clipPath clipPathUnits="userSpaceOnUse" id="clipPath2">
        <path d="M98 137 L663 137 L663 906 L98 906 L98 137 Z"/>
      </clipPath>
    </defs>
    <g fill="white" text-rendering="geometricPrecision" shape-rendering="geometricPrecision" transform="translate(-98,-137)" stroke="white">
      <rect x="98" width="565" height="769" y="137" clip-path="url(#clipPath2)" stroke="none"/>
    </g>
    <g fill="rgb(255,153,0)" text-rendering="geometricPrecision" shape-rendering="geometricPrecision" transform="matrix(1,0,0,1,-98,-137)" stroke="rgb(255,153,0)">
      <path d="M347.5 327 L500.5 327 L500.5 336 Q500.5 346 490.5 346 L357.5 346 Q347.5 346 347.5 336 Z" stroke="none" clip-path="url(#clipPath2)"/>
      <path fill="url(#linearGradient1)" d="M347.5 320 Q347.5 310 357.5 310 L490.5 310 Q500.5 310 500.5 320 L500.5 328 L347.5 328 Z" clip-path="url(#clipPath2)" stroke="none"/>
      <path fill="none" d="M349.5 320 Q349.5 312 357.5 312 L490.5 312 Q498.5 312 498.5 320 L498.5 336 Q498.5 344 490.5 344 L357.5 344 Q349.5 344 349.5 336 Z" stroke-width="2" clip-path="url(#clipPath2)" stroke="rgb(255,240,217)"/>
      <path fill="none" d="M349.5 320 Q349.5 312 357.5 312 L490.5 312 Q498.5 312 498.5 320 L498.5 336 Q498.5 344 490.5 344 L357.5 344 Q349.5 344 349.5 336 Z" clip-path="url(#clipPath2)"/>
    </g>
    <g text-rendering="geometricPrecision" stroke-miterlimit="1.45" shape-rendering="geometricPrecision" font-family="sans-serif" transform="matrix(1,0,0,1,-98,-137)" stroke-linecap="butt">
      <text x="360.3848" xml:space="preserve" y="332.1543" clip-path="url(#clipPath2)" stroke="none">Consensus Optimizer</text>
    </g>
    <g fill="rgb(255,153,0)" text-rendering="geometricPrecision" shape-rendering="geometricPrecision" transform="matrix(1,0,0,1,-98,-137)" stroke="rgb(255,153,0)">
      <path d="M347.5 725 L500.5 725 L500.5 734 Q500.5 744 490.5 744 L357.5 744 Q347.5 744 347.5 734 Z" stroke="none" clip-path="url(#clipPath2)"/>
      <path fill="url(#linearGradient2)" d="M347.5 718 Q347.5 708 357.5 708 L490.5 708 Q500.5 708 500.5 718 L500.5 726 L347.5 726 Z" clip-path="url(#clipPath2)" stroke="none"/>
      <path fill="none" d="M349.5 718 Q349.5 710 357.5 710 L490.5 710 Q498.5 710 498.5 718 L498.5 734 Q498.5 742 490.5 742 L357.5 742 Q349.5 742 349.5 734 Z" stroke-width="2" clip-path="url(#clipPath2)" stroke="rgb(255,240,217)"/>
      <path fill="none" d="M349.5 718 Q349.5 710 357.5 710 L490.5 710 Q498.5 710 498.5 718 L498.5 734 Q498.5 742 490.5 742 L357.5 742 Q349.5 742 349.5 734 Z" clip-path="url(#clipPath2)"/>
    </g>
    <g text-rendering="geometricPrecision" stroke-miterlimit="1.45" shape-rendering="geometricPrecision" font-family="sans-serif" transform="matrix(1,0,0,1,-98,-137)" stroke-linecap="butt">
      <text x="360.3848" xml:space="preserve" y="730.1543" clip-path="url(#clipPath2)" stroke="none">Consensus Optimizer</text>
    </g>
    <g fill="rgb(255,204,0)" text-rendering="geometricPrecision" shape-rendering="geometricPrecision" transform="matrix(1,0,0,1,-98,-137)" stroke="rgb(255,204,0)">
      <rect x="113" width="168" height="30" y="313" clip-path="url(#clipPath2)" stroke="none"/>
    </g>
    <g text-rendering="geometricPrecision" stroke-miterlimit="1.45" shape-rendering="geometricPrecision" font-family="sans-serif" transform="matrix(1,0,0,1,-98,-137)" stroke-linecap="butt">
      <text x="131.1113" xml:space="preserve" y="332.1543" clip-path="url(#clipPath2)" stroke="none">Optimizer Parameters</text>
    </g>
    <g fill="yellow" text-rendering="geometricPrecision" shape-rendering="geometricPrecision" transform="matrix(1,0,0,1,-98,-137)" stroke="yellow">
      <rect x="113" width="1" height="30" y="313" clip-path="url(#clipPath2)" stroke="none"/>
      <rect x="114" width="166" height="1" y="313" clip-path="url(#clipPath2)" stroke="none"/>
      <rect x="114" y="342" clip-path="url(#clipPath2)" fill="rgb(178,142,0)" width="167" height="1" stroke="none"/>
      <rect x="280" y="313" clip-path="url(#clipPath2)" fill="rgb(178,142,0)" width="1" height="29" stroke="none"/>
      <rect x="113" y="253" clip-path="url(#clipPath2)" fill="rgb(153,204,0)" width="168" height="30" stroke="none"/>
    </g>
    <g text-rendering="geometricPrecision" stroke-miterlimit="1.45" shape-rendering="geometricPrecision" font-family="sans-serif" transform="matrix(1,0,0,1,-98,-137)" stroke-linecap="butt">
      <text x="141.2217" xml:space="preserve" y="272.1543" clip-path="url(#clipPath2)" stroke="none">Unit Tree Distance</text>
    </g>
    <g fill="rgb(218,255,0)" text-rendering="geometricPrecision" shape-rendering="geometricPrecision" transform="matrix(1,0,0,1,-98,-137)" stroke="rgb(218,255,0)">
      <rect x="113" width="1" height="30" y="253" clip-path="url(#clipPath2)" stroke="none"/>
      <rect x="114" width="166" height="1" y="253" clip-path="url(#clipPath2)" stroke="none"/>
      <rect x="114" y="282" clip-path="url(#clipPath2)" fill="rgb(107,142,0)" width="167" height="1" stroke="none"/>
      <rect x="280" y="253" clip-path="url(#clipPath2)" fill="rgb(107,142,0)" width="1" height="29" stroke="none"/>
      <rect x="113" y="711" clip-path="url(#clipPath2)" fill="rgb(255,204,0)" width="168" height="30" stroke="none"/>
    </g>
    <g text-rendering="geometricPrecision" stroke-miterlimit="1.45" shape-rendering="geometricPrecision" font-family="sans-serif" transform="matrix(1,0,0,1,-98,-137)" stroke-linecap="butt">
      <text x="131.1113" xml:space="preserve" y="730.1543" clip-path="url(#clipPath2)" stroke="none">Optimizer Parameters</text>
    </g>
    <g fill="yellow" text-rendering="geometricPrecision" shape-rendering="geometricPrecision" transform="matrix(1,0,0,1,-98,-137)" stroke="yellow">
      <rect x="113" width="1" height="30" y="711" clip-path="url(#clipPath2)" stroke="none"/>
      <rect x="114" width="166" height="1" y="711" clip-path="url(#clipPath2)" stroke="none"/>
      <rect x="114" y="740" clip-path="url(#clipPath2)" fill="rgb(178,142,0)" width="167" height="1" stroke="none"/>
      <rect x="280" y="711" clip-path="url(#clipPath2)" fill="rgb(178,142,0)" width="1" height="29" stroke="none"/>
      <rect x="113" y="661" clip-path="url(#clipPath2)" fill="rgb(153,204,0)" width="168" height="30" stroke="none"/>
    </g>
    <g text-rendering="geometricPrecision" stroke-miterlimit="1.45" shape-rendering="geometricPrecision" font-family="sans-serif" transform="matrix(1,0,0,1,-98,-137)" stroke-linecap="butt">
      <text x="137.4248" xml:space="preserve" y="680.1543" clip-path="url(#clipPath2)" stroke="none">String Edit Distance</text>
    </g>
    <g fill="rgb(218,255,0)" text-rendering="geometricPrecision" shape-rendering="geometricPrecision" transform="matrix(1,0,0,1,-98,-137)" stroke="rgb(218,255,0)">
      <rect x="113" width="1" height="30" y="661" clip-path="url(#clipPath2)" stroke="none"/>
      <rect x="114" width="166" height="1" y="661" clip-path="url(#clipPath2)" stroke="none"/>
      <rect x="114" y="690" clip-path="url(#clipPath2)" fill="rgb(107,142,0)" width="167" height="1" stroke="none"/>
      <rect x="280" y="661" clip-path="url(#clipPath2)" fill="rgb(107,142,0)" width="1" height="29" stroke="none"/>
      <path fill="rgb(255,204,0)" d="M372 417.7538 L402.4609 387 L445.5391 387 L476 417.7538 L476 461.2462 L445.5391 492 L402.4609 492 L372 461.2462 Z" clip-path="url(#clipPath2)" fill-rule="evenodd" stroke="none"/>
    </g>
    <g text-rendering="geometricPrecision" stroke-miterlimit="1.45" shape-rendering="geometricPrecision" font-family="sans-serif" transform="matrix(1,0,0,1,-98,-137)" stroke-linecap="butt">
      <text x="410.4854" xml:space="preserve" y="436.6699" clip-path="url(#clipPath2)" stroke="none">Tree</text>
      <text x="391.6621" xml:space="preserve" y="450.6387" clip-path="url(#clipPath2)" stroke="none">Consensus</text>
      <path fill="none" d="M372 417.7538 L402.4609 387 L445.5391 387 L476 417.7538 L476 461.2462 L445.5391 492 L402.4609 492 L372 461.2462 Z" clip-path="url(#clipPath2)" fill-rule="evenodd"/>
    </g>
    <g fill="rgb(0,204,255)" text-rendering="geometricPrecision" shape-rendering="geometricPrecision" transform="matrix(1,0,0,1,-98,-137)" stroke="rgb(0,204,255)">
      <path d="M372 816.7538 L402.4609 786 L445.5391 786 L476 816.7538 L476 860.2462 L445.5391 891 L402.4609 891 L372 860.2462 Z" fill-rule="evenodd" clip-path="url(#clipPath2)" stroke="none"/>
    </g>
    <g text-rendering="geometricPrecision" stroke-miterlimit="1.45" shape-rendering="geometricPrecision" font-family="sans-serif" transform="matrix(1,0,0,1,-98,-137)" stroke-linecap="butt">
      <text x="409.7354" xml:space="preserve" y="835.6699" clip-path="url(#clipPath2)" stroke="none">Final</text>
      <text x="391.6621" xml:space="preserve" y="849.6387" clip-path="url(#clipPath2)" stroke="none">Consensus</text>
      <path fill="none" d="M372 816.7538 L402.4609 786 L445.5391 786 L476 816.7538 L476 860.2462 L445.5391 891 L402.4609 891 L372 860.2462 Z" clip-path="url(#clipPath2)" fill-rule="evenodd"/>
    </g>
    <g fill="rgb(255,153,0)" text-rendering="geometricPrecision" shape-rendering="geometricPrecision" transform="matrix(1,0,0,1,-98,-137)" stroke="rgb(255,153,0)">
      <path d="M495 550 L648 550 L648 559 Q648 569 638 569 L505 569 Q495 569 495 559 Z" stroke="none" clip-path="url(#clipPath2)"/>
      <path fill="url(#linearGradient3)" d="M495 543 Q495 533 505 533 L638 533 Q648 533 648 543 L648 551 L495 551 Z" clip-path="url(#clipPath2)" stroke="none"/>
      <path fill="none" d="M497 543 Q497 535 505 535 L638 535 Q646 535 646 543 L646 559 Q646 567 638 567 L505 567 Q497 567 497 559 Z" stroke-width="2" clip-path="url(#clipPath2)" stroke="rgb(255,240,217)"/>
      <path fill="none" d="M497 543 Q497 535 505 535 L638 535 Q646 535 646 543 L646 559 Q646 567 638 567 L505 567 Q497 567 497 559 Z" clip-path="url(#clipPath2)"/>
    </g>
    <g text-rendering="geometricPrecision" stroke-miterlimit="1.45" shape-rendering="geometricPrecision" font-family="sans-serif" transform="matrix(1,0,0,1,-98,-137)" stroke-linecap="butt">
      <text x="526.2539" xml:space="preserve" y="555.1543" clip-path="url(#clipPath2)" stroke="none">Structure Filter</text>
    </g>
    <g fill="rgb(0,204,255)" text-rendering="geometricPrecision" shape-rendering="geometricPrecision" transform="matrix(1,0,0,1,-98,-137)" stroke="rgb(0,204,255)">
      <path d="M372 182.7538 L402.4609 152 L445.5391 152 L476 182.7538 L476 226.2462 L445.5391 257 L402.4609 257 L372 226.2462 Z" fill-rule="evenodd" clip-path="url(#clipPath2)" stroke="none"/>
    </g>
    <g text-rendering="geometricPrecision" stroke-miterlimit="1.45" shape-rendering="geometricPrecision" font-family="sans-serif" transform="matrix(1,0,0,1,-98,-137)" stroke-linecap="butt">
      <text x="408.4639" xml:space="preserve" y="201.6699" clip-path="url(#clipPath2)" stroke="none">Input</text>
      <text x="409.6738" xml:space="preserve" y="215.6387" clip-path="url(#clipPath2)" stroke="none">Data</text>
      <path fill="none" d="M372 182.7538 L402.4609 152 L445.5391 152 L476 182.7538 L476 226.2462 L445.5391 257 L402.4609 257 L372 226.2462 Z" clip-path="url(#clipPath2)" fill-rule="evenodd"/>
    </g>
    <g fill="rgb(255,204,0)" text-rendering="geometricPrecision" shape-rendering="geometricPrecision" transform="matrix(1,0,0,1,-98,-137)" stroke="rgb(255,204,0)">
      <path d="M372 591.7538 L402.4609 561 L445.5391 561 L476 591.7538 L476 635.2462 L445.5391 666 L402.4609 666 L372 635.2462 Z" fill-rule="evenodd" clip-path="url(#clipPath2)" stroke="none"/>
    </g>
    <g text-rendering="geometricPrecision" stroke-miterlimit="1.45" shape-rendering="geometricPrecision" font-family="sans-serif" transform="matrix(1,0,0,1,-98,-137)" stroke-linecap="butt">
      <text x="401.2041" xml:space="preserve" y="610.6699" clip-path="url(#clipPath2)" stroke="none">Filtered</text>
      <text x="392.8311" xml:space="preserve" y="624.6387" clip-path="url(#clipPath2)" stroke="none">Structures</text>
      <path fill="none" d="M372 591.7538 L402.4609 561 L445.5391 561 L476 591.7538 L476 635.2462 L445.5391 666 L402.4609 666 L372 635.2462 Z" clip-path="url(#clipPath2)" fill-rule="evenodd"/>
      <path fill="none" d="M280.9889 328 L339.5016 328" clip-path="url(#clipPath2)"/>
      <path d="M347.5016 328 L335.5016 323 L338.5016 328 L335.5016 333 Z" clip-path="url(#clipPath2)" stroke="none"/>
      <path fill="none" d="M281.0321 282.4389 L340.3392 311.3919" clip-path="url(#clipPath2)"/>
      <path d="M347.5283 314.9016 L338.9382 305.144 L339.4406 310.9532 L334.5512 314.1303 Z" clip-path="url(#clipPath2)" stroke="none"/>
      <path fill="none" d="M280.9889 726 L339.5016 726" clip-path="url(#clipPath2)"/>
      <path d="M347.5016 726 L335.5016 721 L338.5016 726 L335.5016 731 Z" clip-path="url(#clipPath2)" stroke="none"/>
      <path fill="none" d="M281.0128 690.0867 L339.8427 708.4577" clip-path="url(#clipPath2)"/>
      <path d="M347.479 710.8423 L337.515 702.4927 L338.8882 708.1596 L334.5341 712.0381 Z" clip-path="url(#clipPath2)" stroke="none"/>
      <path fill="none" d="M424 345.9935 L424 379.0396" clip-path="url(#clipPath2)"/>
      <path d="M424 387.0396 L429 375.0396 L424 378.0396 L419 375.0396 Z" clip-path="url(#clipPath2)" stroke="none"/>
      <path fill="none" d="M424 743.9901 L424 778.0304" clip-path="url(#clipPath2)"/>
      <path d="M424 786.0304 L429 774.0304 L424 777.0304 L419 774.0304 Z" clip-path="url(#clipPath2)" stroke="none"/>
      <path fill="none" d="M469.1935 468.1421 L564.7428 528.6979" clip-path="url(#clipPath2)"/>
      <path d="M571.5 532.9805 L564.0408 522.3334 L563.8981 528.1626 L558.6876 530.7799 Z" clip-path="url(#clipPath2)" stroke="none"/>
      <path fill="none" d="M424 256.9935 L424 302.0057" clip-path="url(#clipPath2)"/>
      <path d="M424 310.0057 L429 298.0057 L424 301.0057 L419 298.0057 Z" clip-path="url(#clipPath2)" stroke="none"/>
      <path fill="none" d="M473.9727 228.318 L480.3359 231.6797 L504.4434 246.998 L525.8438 263.4688 L544.5371 281.0918 L560.5234 299.8672 L573.8027 319.7949 L584.375 340.875 L592.2402 363.1074 L597.3984 386.4922 L599.8496 411.0293 L599.5938 436.7188 L596.6309 463.5605 L590.9609 491.5547 L582.584 520.7012 L580.8404 525.4674" clip-path="url(#clipPath2)"/>
      <path d="M578.0919 532.9805 L586.9103 523.4287 L581.184 524.5283 L577.519 519.9931 Z" clip-path="url(#clipPath2)" stroke="none"/>
      <path fill="none" d="M529.0433 568.9901 L483.144 588.439" clip-path="url(#clipPath2)"/>
      <path d="M475.7779 591.5602 L488.7777 591.4822 L484.0647 588.0489 L484.8762 582.2747 Z" clip-path="url(#clipPath2)" stroke="none"/>
      <path fill="none" d="M424 665.9872 L424 699.9786" clip-path="url(#clipPath2)"/>
      <path d="M424 707.9786 L429 695.9786 L424 698.9786 L419 695.9786 Z" clip-path="url(#clipPath2)" stroke="none"/>
    </g>
  </g>
</svg>
