<?xml version="1.0" encoding="UTF-8" standalone="no"?>
<svg
   xmlns:dc="http://purl.org/dc/elements/1.1/"
   xmlns:cc="http://creativecommons.org/ns#"
   xmlns:rdf="http://www.w3.org/1999/02/22-rdf-syntax-ns#"
   xmlns:svg="http://www.w3.org/2000/svg"
   xmlns="http://www.w3.org/2000/svg"
   xmlns:sodipodi="http://sodipodi.sourceforge.net/DTD/sodipodi-0.dtd"
   xmlns:inkscape="http://www.inkscape.org/namespaces/inkscape"
   fill-opacity="1"
   color-rendering="auto"
   color-interpolation="auto"
   text-rendering="auto"
   stroke="black"
   stroke-linecap="square"
   width="445"
   stroke-miterlimit="10"
   shape-rendering="auto"
   stroke-opacity="1"
   fill="black"
   stroke-dasharray="none"
   font-weight="normal"
   stroke-width="1"
   height="630"
   font-family="'Dialog'"
   font-style="normal"
   stroke-linejoin="miter"
   font-size="12px"
   stroke-dashoffset="0"
   image-rendering="auto"
   id="svg3636"
   version="1.1"
   inkscape:version="0.48.4 r9939"
   sodipodi:docname="workflow.svg">
  <metadata
     id="metadata3768">
    <rdf:RDF>
      <cc:Work
         rdf:about="">
        <dc:format>image/svg+xml</dc:format>
        <dc:type
           rdf:resource="http://purl.org/dc/dcmitype/StillImage" />
      </cc:Work>
    </rdf:RDF>
  </metadata>
  <sodipodi:namedview
     pagecolor="#ffffff"
     bordercolor="#666666"
     borderopacity="1"
     objecttolerance="10"
     gridtolerance="10"
     guidetolerance="10"
     inkscape:pageopacity="0"
     inkscape:pageshadow="2"
     inkscape:window-width="640"
     inkscape:window-height="480"
     id="namedview3766"
     showgrid="false"
     inkscape:zoom="0.52976889"
     inkscape:cx="283.50181"
     inkscape:cy="478.69665"
     inkscape:window-x="81"
     inkscape:window-y="24"
     inkscape:window-maximized="0"
     inkscape:current-layer="svg3636" />
  <!--Generated by ySVG 2.5-->
  <defs
     id="genericDefs">
    <defs
       id="defs1">
      <clipPath
         id="clipPath1"
         clipPathUnits="userSpaceOnUse">
        <path
           id="path3643"
           d="M0 0 L445 0 L445 630 L0 630 L0 0 Z" />
      </clipPath>
      <clipPath
         id="clipPath2"
         clipPathUnits="userSpaceOnUse">
        <path
           id="path3646"
           d="M-20 -34 L425 -34 L425 596 L-20 596 L-20 -34 Z" />
      </clipPath>
    </defs>
  </defs>
  <g
     style="fill:#ffcc00;stroke:#ffcc00"
     id="g3652"
     transform="translate(20,34)"
     shape-rendering="geometricPrecision"
     text-rendering="geometricPrecision">
    <path
       style="fill-rule:evenodd;stroke:none"
       inkscape:connector-curvature="0"
       id="path3654"
       clip-path="url(#clipPath2)"
       d="m 84,34.0391 52,-52.5 52,52.5 -52,52.5 z" />
  </g>
  <g
     style="stroke-linecap:butt;stroke-miterlimit:1.45000005;font-family:sans-serif"
     id="g3656"
     transform="translate(20,34)"
     shape-rendering="geometricPrecision"
     stroke-miterlimit="1.45"
     text-rendering="geometricPrecision">
    <text
       style="stroke:none"
       id="text3658"
       clip-path="url(#clipPath2)"
       y="31.209"
       xml:space="preserve"
       x="120.4639">Input</text>
    <text
       style="stroke:none"
       id="text3660"
       clip-path="url(#clipPath2)"
       y="45.1777"
       xml:space="preserve"
       x="104.8311">Structures</text>
    <path
       style="fill:none"
       inkscape:connector-curvature="0"
       id="path3662"
       clip-path="url(#clipPath2)"
       d="m 84,34.0391 52,-52.5 52,52.5 -52,52.5 z" />
  </g>
  <g
     style="fill:#f5f5f5;stroke:#f5f5f5"
     id="g3664"
     transform="translate(20,34)"
     shape-rendering="geometricPrecision"
     text-rendering="geometricPrecision">
    <rect
       style="stroke:none"
       id="rect3666"
       height="156.46091"
       ry="4"
       rx="4"
       width="282"
       clip-path="url(#clipPath2)"
       y="116.5391"
       x="-5" />
    <rect
       style="fill:#ebebeb;stroke:none"
       id="rect3668"
       height="21.460899"
       width="282"
       clip-path="url(#clipPath2)"
       y="116.5391"
       x="-5" />
  </g>
  <g
     style="font-size:15px;stroke-linecap:butt;stroke-miterlimit:1.45000005;font-family:sans-serif"
     id="g3670"
     stroke-miterlimit="1.45"
     shape-rendering="geometricPrecision"
     text-rendering="geometricPrecision"
     transform="translate(20,34)"
     font-size="15px">
    <text
       style="stroke:none"
       id="text3672"
       clip-path="url(#clipPath2)"
       y="132.4624"
       xml:space="preserve"
       x="84.401901">Unit Tree Indel Distance  </text>
    <rect
       style="fill:none;stroke-dasharray:6, 2"
       id="rect3674"
       height="156.46091"
       ry="4"
       rx="4"
       width="282"
       clip-path="url(#clipPath2)"
       y="116.5391"
       x="-5" />
  </g>
  <g
     style="fill:#ffcc00;stroke:#ffcc00"
     id="g3676"
     transform="translate(20,34)"
     shape-rendering="geometricPrecision"
     text-rendering="geometricPrecision">
    <circle
       style="stroke:none"
       sodipodi:ry="50"
       sodipodi:rx="50"
       sodipodi:cy="205.5"
       sodipodi:cx="60"
       d="m 110,205.5 c 0,27.61424 -22.385763,50 -50,50 -27.614237,0 -50,-22.38576 -50,-50 0,-27.61424 22.385763,-50 50,-50 27.614237,0 50,22.38576 50,50 z"
       id="circle3678"
       cy="205.5"
       cx="60"
       clip-path="url(#clipPath2)"
       r="50" />
  </g>
  <g
     style="stroke-linecap:butt;stroke-miterlimit:1.45000005;font-family:sans-serif"
     id="g3680"
     transform="translate(20,34)"
     shape-rendering="geometricPrecision"
     stroke-miterlimit="1.45"
     text-rendering="geometricPrecision">
    <text
       style="stroke:none"
       id="text3682"
       clip-path="url(#clipPath2)"
       y="202.66991"
       xml:space="preserve"
       x="27.6621">Consensus</text>
    <text
       style="stroke:none"
       id="text3684"
       clip-path="url(#clipPath2)"
       y="216.6387"
       xml:space="preserve"
       x="41.144501">Solver</text>
    <circle
       style="fill:none"
       sodipodi:ry="50"
       sodipodi:rx="50"
       sodipodi:cy="205.5"
       sodipodi:cx="60"
       d="m 110,205.5 c 0,27.61424 -22.385763,50 -50,50 -27.614237,0 -50,-22.38576 -50,-50 0,-27.61424 22.385763,-50 50,-50 27.614237,0 50,22.38576 50,50 z"
       id="circle3686"
       cy="205.5"
       cx="60"
       clip-path="url(#clipPath2)"
       r="50" />
    <text
       style="stroke:none"
       id="text3688"
       clip-path="url(#clipPath2)"
       y="202.66991"
       xml:space="preserve"
       x="196.4854">Tree</text>
    <text
       style="stroke:none"
       id="text3690"
       clip-path="url(#clipPath2)"
       y="216.6387"
       xml:space="preserve"
       x="177.66209">Consensus</text>
    <path
       style="fill:none"
       inkscape:connector-curvature="0"
       id="path3692"
       clip-path="url(#clipPath2)"
       d="M 158,205.5 210,153 262,205.5 210,258 z" />
    <path
       style="fill:none"
       inkscape:connector-curvature="0"
       id="path3694"
       clip-path="url(#clipPath2)"
       d="M 107.9254,58.2377 92.0277,80.6235 78.7409,104.2958 68.065,129.2547 62.3499,147.8529" />
    <path
       style="stroke:none"
       inkscape:connector-curvature="0"
       id="path3696"
       clip-path="url(#clipPath2)"
       d="m 60,155.5 8.3043,-10.002 -5.6607,1.399 -3.8982,-4.3363 z" />
    <path
       style="fill:none"
       inkscape:connector-curvature="0"
       id="path3698"
       clip-path="url(#clipPath2)"
       d="m 110,205.5 25,0 0,0 15.0347,0" />
    <path
       style="stroke:none"
       inkscape:connector-curvature="0"
       id="path3700"
       clip-path="url(#clipPath2)"
       d="m 158.0347,205.5 -12,-5 3,5 -3,5 z" />
  </g>
  <g
     style="fill:#f5f5f5;stroke:#f5f5f5"
     id="g3702"
     transform="translate(20,34)"
     shape-rendering="geometricPrecision"
     text-rendering="geometricPrecision">
    <rect
       style="stroke:none"
       id="rect3704"
       height="162.46091"
       ry="4"
       rx="4"
       width="282"
       clip-path="url(#clipPath2)"
       y="285.5"
       x="-5" />
    <rect
       style="fill:#ebebeb;stroke:none"
       id="rect3706"
       height="21.460899"
       width="282"
       clip-path="url(#clipPath2)"
       y="285.5"
       x="-5" />
  </g>
  <g
     style="font-size:15px;stroke-linecap:butt;stroke-miterlimit:1.45000005;font-family:sans-serif"
     id="g3708"
     stroke-miterlimit="1.45"
     shape-rendering="geometricPrecision"
     text-rendering="geometricPrecision"
     transform="translate(20,34)"
     font-size="15px">
    <text
       style="stroke:none"
       id="text3710"
       clip-path="url(#clipPath2)"
       y="301.42331"
       xml:space="preserve"
       x="116.5259">String Edit Distance  </text>
    <rect
       style="fill:none;stroke-dasharray:6, 2"
       id="rect3712"
       height="162.46091"
       ry="4"
       rx="4"
       width="282"
       clip-path="url(#clipPath2)"
       y="285.5"
       x="-5" />
    <text
       style="font-size:12px;stroke:none"
       id="text3714"
       clip-path="url(#clipPath2)"
       y="371.63089"
       font-size="12px"
       xml:space="preserve"
       x="187.2041">Filtered</text>
    <text
       style="font-size:12px;stroke:none"
       id="text3716"
       clip-path="url(#clipPath2)"
       y="385.59961"
       font-size="12px"
       xml:space="preserve"
       x="178.8311">Structures</text>
    <path
       style="fill:none"
       inkscape:connector-curvature="0"
       id="path3718"
       clip-path="url(#clipPath2)"
       d="m 158,374.4609 52,-52.5 52,52.5 -52,52.5 z" />
  </g>
  <g
     style="fill:#ffcc00;stroke:#ffcc00"
     id="g3720"
     transform="translate(20,34)"
     shape-rendering="geometricPrecision"
     text-rendering="geometricPrecision">
    <circle
       style="stroke:none"
       sodipodi:ry="50"
       sodipodi:rx="50"
       sodipodi:cy="374.46091"
       sodipodi:cx="60"
       d="m 110,374.46091 c 0,27.61423 -22.385763,50 -50,50 -27.614237,0 -50,-22.38577 -50,-50 0,-27.61424 22.385763,-50 50,-50 27.614237,0 50,22.38576 50,50 z"
       id="circle3722"
       cy="374.46091"
       cx="60"
       clip-path="url(#clipPath2)"
       r="50" />
  </g>
  <g
     style="stroke-linecap:butt;stroke-miterlimit:1.45000005;font-family:sans-serif"
     id="g3724"
     transform="translate(20,34)"
     shape-rendering="geometricPrecision"
     stroke-miterlimit="1.45"
     text-rendering="geometricPrecision">
    <text
       style="stroke:none"
       id="text3726"
       clip-path="url(#clipPath2)"
       y="371.63089"
       xml:space="preserve"
       x="27.6621">Consensus</text>
    <text
       style="stroke:none"
       id="text3728"
       clip-path="url(#clipPath2)"
       y="385.59961"
       xml:space="preserve"
       x="41.144501">Solver</text>
    <circle
       style="fill:none"
       sodipodi:ry="50"
       sodipodi:rx="50"
       sodipodi:cy="374.46091"
       sodipodi:cx="60"
       d="m 110,374.46091 c 0,27.61423 -22.385763,50 -50,50 -27.614237,0 -50,-22.38577 -50,-50 0,-27.61424 22.385763,-50 50,-50 27.614237,0 50,22.38576 50,50 z"
       id="circle3730"
       cy="374.46091"
       cx="60"
       clip-path="url(#clipPath2)"
       r="50" />
  </g>
  <g
     style="fill:#ffcc00;stroke:#ffcc00"
     id="g3732"
     transform="translate(20,34)"
     shape-rendering="geometricPrecision"
     text-rendering="geometricPrecision">
    <path
       style="fill-rule:evenodd;stroke:none"
       inkscape:connector-curvature="0"
       id="path3734"
       clip-path="url(#clipPath2)"
       d="m 84,528.4219 52,-52.5 52,52.5 -52,52.5 z" />
  </g>
  <g
     style="stroke-linecap:butt;stroke-miterlimit:1.45000005;font-family:sans-serif"
     id="g3736"
     transform="translate(20,34)"
     shape-rendering="geometricPrecision"
     stroke-miterlimit="1.45"
     text-rendering="geometricPrecision">
    <text
       style="stroke:none"
       id="text3738"
       clip-path="url(#clipPath2)"
       y="525.5918"
       xml:space="preserve"
       x="121.7354">Final</text>
    <text
       style="stroke:none"
       id="text3740"
       clip-path="url(#clipPath2)"
       y="539.56049"
       xml:space="preserve"
       x="103.6621">Consensus</text>
    <path
       style="fill:none"
       inkscape:connector-curvature="0"
       id="path3742"
       clip-path="url(#clipPath2)"
       d="m 84,528.4219 52,-52.5 52,52.5 -52,52.5 z" />
    <text
       style="stroke:none"
       id="text3744"
       clip-path="url(#clipPath2)"
       y="202.66991"
       xml:space="preserve"
       x="331.957">Structure</text>
    <text
       style="stroke:none"
       id="text3746"
       clip-path="url(#clipPath2)"
       y="216.6387"
       xml:space="preserve"
       x="344.7041">Filter</text>
    <circle
       style="fill:none"
       sodipodi:ry="50"
       sodipodi:rx="50"
       sodipodi:cy="205.5"
       sodipodi:cx="360"
       d="m 410,205.5 c 0,27.61424 -22.38576,50 -50,50 -27.61424,0 -50,-22.38576 -50,-50 0,-27.61424 22.38576,-50 50,-50 27.61424,0 50,22.38576 50,50 z"
       id="circle3748"
       cy="205.5"
       cx="360"
       clip-path="url(#clipPath2)"
       r="50" />
    <path
       style="fill:none"
       inkscape:connector-curvature="0"
       id="path3750"
       clip-path="url(#clipPath2)"
       d="m 158.0347,374.4609 -40.0347,0" />
    <path
       style="stroke:none"
       inkscape:connector-curvature="0"
       id="path3752"
       clip-path="url(#clipPath2)"
       d="m 110,374.4609 12,5 -3,-5 3,-5 z" />
    <path
       style="fill:none"
       inkscape:connector-curvature="0"
       id="path3754"
       clip-path="url(#clipPath2)"
       d="m 62.9254,424.3921 4.5132,18.2008 8.0959,19.9382 10.9041,18.552 13.7123,17.1658 1.2813,1.2238" />
    <path
       style="stroke:none"
       inkscape:connector-curvature="0"
       id="path3756"
       clip-path="url(#clipPath2)"
       d="m 107.2173,504.9984 -5.2241,-11.9042 -1.2842,5.6878 -5.6229,1.5436 z" />
    <path
       style="fill:none"
       inkscape:connector-curvature="0"
       id="path3758"
       clip-path="url(#clipPath2)"
       d="M 261.9653,205.5 302,205.5" />
    <path
       style="stroke:none"
       inkscape:connector-curvature="0"
       id="path3760"
       clip-path="url(#clipPath2)"
       d="m 310,205.5 -12,-5 3,5 -3,5 z" />
    <path
       style="fill:none"
       inkscape:connector-curvature="0"
       id="path3762"
       clip-path="url(#clipPath2)"
       d="m 366.9883,255.0391 0.4654,13.7271 -1.1646,17.8491 -2.9891,16.2294 -4.8136,14.6095 -6.6382,12.9897 -8.4627,11.37 -10.2873,9.7502 -12.1118,8.1303 -13.9364,6.5106 -15.7609,4.8908 -17.5854,3.271 -4.7287,0.4022" />
    <path
       style="stroke:none"
       inkscape:connector-curvature="0"
       id="path3764"
       clip-path="url(#clipPath2)"
       d="m 261.0038,375.4471 12.3806,3.9649 -3.413,-4.7277 2.5653,-5.2363 z" />
  </g>
</svg>
